<?xml version="1.0" encoding="UTF-8"?>
<svg preserveAspectRatio="none" version="1.1" viewBox="0 0 1440 851" xmlns="http://www.w3.org/2000/svg">
<g fill="none" mask="url(#a)">
<path d="m401.37 95.09h71.33v71.33h-71.33z" stroke="rgba(255, 152, 153, 1)"/>
<path d="m1030.2 60.37h28.34v28.34h-28.34z" fill="rgba(244, 247, 205, 1)"/>
<path d="m1193.2 613.88a24.63 24.63 0 1 0 49.26 0 24.63 24.63 0 1 0-49.26 0z" fill="rgba(12, 72, 108, 1)"/>
<path d="m582.39 430.13a76.29 76.29 0 1 0 138.16-64.74z" fill="rgba(205, 247, 229, 1)"/>
<path d="m1213.4 742.45a51.59 51.59 0 1 0 46.97-91.87z" fill="rgba(255, 152, 153, 1)"/>
<path d="m1239.4 307.61h13.36v13.36h-13.36z" stroke="rgba(205, 247, 229, 1)"/>
<path d="m418.39 430.94h32.98v32.98h-32.98z" stroke="rgba(244, 247, 205, 1)"/>
<path d="m1256.5 782.33a7.01 7.01 0 1 0 14.02 0 7.01 7.01 0 1 0-14.02 0z" fill="rgba(236, 240, 241, 1)"/>
<path d="m744.73 73.65h44.28v20h-44.28z" stroke="rgba(244, 247, 205, 1)"/>
<path d="m1107.1 472.25a84.13 84.13 0 1 0 168.26 0 84.13 84.13 0 1 0-168.26 0z" stroke="rgba(244, 247, 205, 1)"/>
<path d="m844.15 682.89a57.54 57.54 0 1 0 115.08 0 57.54 57.54 0 1 0-115.08 0z" fill="rgba(205, 247, 229, 1)"/>
<path d="m1169.2 57.78a41.1 41.1 0 1 0-59.94 56.25z" fill="rgba(244, 247, 205, 1)"/>
<path d="m105.55 654.54a14.14 14.14 0 1 0 23.51 15.71z" stroke="rgba(255, 152, 153, 1)"/>
<path d="m731.85 786.61a30.29 30.29 0 1 0 60.58 0 30.29 30.29 0 1 0-60.58 0z" fill="rgba(244, 247, 205, 1)"/>
<path d="m188.38 603.53h19.27v19.27h-19.27z" fill="rgba(244, 247, 205, 1)"/>
<path d="m508.27 777.27h60.64v37.62h-60.64z" fill="rgba(236, 240, 241, 1)"/>
<path d="m760.71 345.49a39.1 39.1 0 1 0 78.2 0 39.1 39.1 0 1 0-78.2 0z" stroke="rgba(244, 247, 205, 1)"/>
<path d="m1276 520.58h39.9v39.9h-39.9z" stroke="rgba(255, 152, 153, 1)"/>
<path d="m483.2 371.22h36.88v36.88h-36.88z" fill="rgba(236, 240, 241, 1)"/>
<path d="m1252.8 703.71a3.7 3.7 0 1 0 7.4 0 3.7 3.7 0 1 0-7.4 0z" stroke="rgba(244, 247, 205, 1)"/>
<path d="m1030.8 447.75a9.27 9.27 0 1 0 10.01-15.6z" fill="rgba(12, 72, 108, 1)"/>
<path d="m48.1 517.5a44.01 44.01 0 1 0 62.17 62.31z" stroke="rgba(12, 72, 108, 1)"/>
</g>
<defs>
<mask id="a">
<rect width="1440" height="851" fill="#fff"/>
</mask>
</defs>
</svg>
