<?xml version="1.0" encoding="UTF-8"?>
<svg preserveAspectRatio="none" version="1.1" viewBox="0 0 1440 851" xmlns="http://www.w3.org/2000/svg">
<g fill="none" mask="url(#a)">
<path d="m954.85 692.76a10.83 10.83 0 1 0 21.66 0 10.83 10.83 0 1 0-21.66 0z" fill="rgba(205, 247, 229, 1)"/>
<path d="m726.89 200.97a0.81 0.81 0 1 0 1.62 0 0.81 0.81 0 1 0-1.62 0z" stroke="rgba(12, 72, 108, 1)"/>
<path d="m1042.2 95.61a84.18 84.18 0 1 0-142.48 89.69z" fill="rgba(205, 247, 229, 1)"/>
<path d="m566.63 510.14a79.26 79.26 0 1 0 119.28-104.41z" stroke="rgba(244, 247, 205, 1)"/>
<path d="m116.51 348.75h39.86v39.86h-39.86z" fill="rgba(12, 72, 108, 1)"/>
<path d="m1253.7 725.28a71.61 71.61 0 1 0 143.22 0 71.61 71.61 0 1 0-143.22 0z" stroke="rgba(12, 72, 108, 1)"/>
<path d="m1037.8 173.87h71.4v36.8h-71.4z" fill="rgba(12, 72, 108, 1)"/>
<path d="m895.61 485.96a49.27 49.27 0 1 0 98.54 0 49.27 49.27 0 1 0-98.54 0z" fill="rgba(244, 247, 205, 1)"/>
<path d="m352.9 404.06h29.17v18.42h-29.17z" stroke="rgba(205, 247, 229, 1)"/>
<path d="m1307.1 91.61a59.66 59.66 0 1 0 119.32 0 59.66 59.66 0 1 0-119.32 0z" fill="rgba(255, 152, 153, 1)"/>
<path d="m805.31 386.29h9.87v9.98h-9.87z" stroke="rgba(255, 152, 153, 1)"/>
<path d="m1057.7 760.37h37.94v37.94h-37.94z" fill="rgba(255, 152, 153, 1)"/>
<path d="m1071.8 438.28a24.48 24.48 0 1 0 48.96 0 24.48 24.48 0 1 0-48.96 0z" stroke="rgba(205, 247, 229, 1)"/>
<path d="m352.66 323.61a23.21 23.21 0 1 0 46.42 0 23.21 23.21 0 1 0-46.42 0z" fill="rgba(205, 247, 229, 1)"/>
<path d="m127.2 100.74h42.88v42.88h-42.88z" stroke="rgba(205, 247, 229, 1)"/>
<path d="m349.52 470.3a76.29 76.29 0 1 0 152.58 0 76.29 76.29 0 1 0-152.58 0z" fill="rgba(255, 152, 153, 1)"/>
<path d="m1361.2 755.87h41.38v57.3h-41.38z" stroke="rgba(205, 247, 229, 1)"/>
<path d="m1280.6 13.05h64.13v64.13h-64.13z" fill="rgba(205, 247, 229, 1)"/>
<path d="m892.15 639.36h5.72v6.36h-5.72z" fill="rgba(205, 247, 229, 1)"/>
<path d="m599.86 669.86a11.87 11.87 0 1 0 23.74 0 11.87 11.87 0 1 0-23.74 0z" fill="rgba(236, 240, 241, 1)"/>
<path d="m1409.5 725.07h14.32v15.25h-14.32z" fill="rgba(205, 247, 229, 1)"/>
<path d="m762.16 591.93a50.36 50.36 0 1 0-58.03-82.32z" stroke="rgba(255, 152, 153, 1)"/>
</g>
<defs>
<mask id="a">
<rect width="1440" height="851" fill="#fff"/>
</mask>
</defs>
</svg>
