<?xml version="1.0" encoding="UTF-8"?>
<svg preserveAspectRatio="none" version="1.1" viewBox="0 0 1440 851" xmlns="http://www.w3.org/2000/svg">
<g fill="none" mask="url(#a)">
<path d="m607.15 773.55a71.67 71.67 0 1 0 143.34 0 71.67 71.67 0 1 0-143.34 0z" fill="rgba(12, 72, 108, 1)"/>
<path d="m503 774.36h61.54v22.21h-61.54z" fill="rgba(236, 240, 241, 1)"/>
<path d="m541.93 328.76h47.87v32.91h-47.87z" stroke="rgba(12, 72, 108, 1)"/>
<path d="m115.13 30.02a41.46 41.46 0 1 0 82.92 0 41.46 41.46 0 1 0-82.92 0z" stroke="rgba(244, 247, 205, 1)"/>
<path d="m872.69 505.2h23.01v77.6h-23.01z" stroke="rgba(12, 72, 108, 1)"/>
<path d="m526.42 673.66h79.92v11.12h-79.92z" stroke="rgba(12, 72, 108, 1)"/>
<path d="m317.07 346.99h62.02v62.02h-62.02z" fill="rgba(12, 72, 108, 1)"/>
<path d="m405.16 201.92a2.1 2.1 0 1 0 4.2 0 2.1 2.1 0 1 0-4.2 0z" fill="rgba(205, 247, 229, 1)"/>
<path d="m529.42 132.27a51.82 51.82 0 1 0 103.64 0 51.82 51.82 0 1 0-103.64 0z" fill="rgba(205, 247, 229, 1)"/>
<path d="m1215 545.69h78.96v39.56h-78.96z" stroke="rgba(205, 247, 229, 1)"/>
<path d="m802.16 102.62a47.85 47.85 0 1 0 95.7 0 47.85 47.85 0 1 0-95.7 0z" stroke="rgba(12, 72, 108, 1)"/>
<path d="m1151.9 468.05a6.78 6.78 0 1 0 13.56 0 6.78 6.78 0 1 0-13.56 0z" fill="rgba(244, 247, 205, 1)"/>
<path d="m191.68 374.31a14.77 14.77 0 1 0-10.17 27.73z" fill="rgba(236, 240, 241, 1)"/>
<path d="m1073.5 103.68h45.9v2.79h-45.9z" stroke="rgba(12, 72, 108, 1)"/>
<path d="m836.04 718.16h14.42v43.39h-14.42z" fill="rgba(255, 152, 153, 1)"/>
<path d="m0.53 14.46a48.51 48.51 0 1 0 22.59 94.36z" stroke="rgba(205, 247, 229, 1)"/>
<path d="m1097.7 590.64h80.84v80.84h-80.84z" fill="rgba(205, 247, 229, 1)"/>
<path d="m1215.9 209.51h77.38v77.38h-77.38z" stroke="rgba(12, 72, 108, 1)"/>
<path d="m116.59 583.62a8.43 8.43 0 1 0 16.86 0 8.43 8.43 0 1 0-16.86 0z" fill="rgba(236, 240, 241, 1)"/>
<path d="m102.59 588.17h70.5v70.5h-70.5z" fill="rgba(205, 247, 229, 1)"/>
<path d="m252.09 91.77a16.65 16.65 0 1 0 33.3 0 16.65 16.65 0 1 0-33.3 0z" stroke="rgba(205, 247, 229, 1)"/>
<path d="m644.45 646.31h18.83v6.7h-18.83z" stroke="rgba(255, 152, 153, 1)"/>
</g>
<defs>
<mask id="a">
<rect width="1440" height="851" fill="#fff"/>
</mask>
</defs>
</svg>


