<?xml version="1.0" encoding="UTF-8"?>
<svg preserveAspectRatio="none" version="1.1" viewBox="0 0 1440 560" xmlns="http://www.w3.org/2000/svg">
<g fill="none" mask="url(#i)">
<rect transform="rotate(86.19 184.97 51.82)" x="116.47" y="-16.68" width="137" height="137" clip-path="url(#q)" fill="url(#h)"/>
<path d="m185.5 368.17 10.43 7.43-4.95 11.81 10.43 7.42-4.96 11.81 10.44 7.43-4.96 11.81m-24.12-55.52 10.43 7.43-4.96 11.81 10.44 7.42-4.96 11.81 10.43 7.43-4.96 11.81m-24.12-55.52 10.43 7.43-4.95 11.81 10.43 7.42-4.96 11.81 10.44 7.43-4.96 11.81" stroke="rgba(244, 247, 205, 1)" stroke-dasharray="3, 3" stroke-width="1.77"/>
<rect transform="rotate(117.75 1242.8 486.36)" x="1146.8" y="390.36" width="192" height="192" clip-path="url(#p)" fill="url(#g)"/>
<rect transform="rotate(148.23 1213.5 207.74)" x="1169.7" y="163.92" width="87.64" height="87.64" clip-path="url(#o)" fill="url(#f)"/>
<path d="m161.16 455.54 1.33-12.74 12.72-1.49 1.33-12.74 12.72-1.5 1.33-12.74 12.72-1.5" stroke="rgba(236, 240, 241, 1)" stroke-dasharray="3, 3"/>
<rect transform="rotate(-68.13 717.24 410.57)" x="608.16" y="301.49" width="218.16" height="218.16" clip-path="url(#n)" fill="url(#e)"/>
<path d="m1505.9 390.01-26.29 55.17 44.875 4.1447z" stroke="rgba(205, 247, 229, 1)" stroke-dasharray="3, 2" stroke-width="2.18"/>
<path d="m1389 285.1-65.97 133.63-30.259-130.06z" fill="rgba(22, 147, 165, 1)"/>
<rect transform="rotate(-19.86 371.96 328.18)" x="341.96" y="298.18" width="60" height="60" clip-path="url(#m)" fill="url(#d)"/>
<rect transform="rotate(-63.57 1303.3 360.15)" x="1165.5" y="222.35" width="275.6" height="275.6" clip-path="url(#l)" fill="url(#c)"/>
<rect transform="rotate(35.79 94.18 313.26)" x="-9.32" y="209.76" width="207" height="207" clip-path="url(#k)" fill="url(#b)"/>
<rect transform="rotate(234.32 369.5 272.59)" x="204.38" y="107.47" width="330.24" height="330.24" clip-path="url(#j)" fill="url(#a)"/>
</g>
<defs>
<mask id="i">
<rect width="1440" height="560" fill="#fff"/>
</mask>
<pattern id="h" width="13.7" height="13.7" patternUnits="userSpaceOnUse">
<path d="m6.85 1v11.7m-5.85-5.85h11.7" fill="none" stroke="rgba(12, 72, 108, 1)" stroke-width="1.37"/>
</pattern>
<clipPath id="q">
<circle cx="184.97" cy="51.82" r="34.25"/>
</clipPath>
<pattern id="g" width="192" height="6" patternUnits="userSpaceOnUse">
<rect width="192" height="3" fill="rgba(194, 178, 128, 1)"/>
<rect y="3" width="192" height="3" fill="rgba(0, 0, 0, 0)"/>
</pattern>
<clipPath id="p">
<circle cx="1242.8" cy="486.36" r="48"/>
</clipPath>
<pattern id="f" width="87.64" height="6.26" patternUnits="userSpaceOnUse">
<rect width="87.64" height="3.13" fill="rgba(236, 240, 241, 1)"/>
<rect y="3.13" width="87.64" height="3.13" fill="rgba(0, 0, 0, 0)"/>
</pattern>
<clipPath id="o">
<circle cx="1213.5" cy="207.74" r="21.91"/>
</clipPath>
<pattern id="e" width="6.06" height="6.06" patternUnits="userSpaceOnUse">
<path d="m3.03 1v4.06m-2.03-2.03h4.06" fill="none" stroke="rgba(12, 72, 108, 1)"/>
</pattern>
<clipPath id="n">
<circle cx="717.24" cy="410.57" r="54.54"/>
</clipPath>
<pattern id="d" width="6" height="6" patternUnits="userSpaceOnUse">
<path d="m3 1v4m-2-2h4" fill="none" stroke="rgba(12, 72, 108, 1)" stroke-width="1.05"/>
</pattern>
<clipPath id="m">
<circle cx="371.96" cy="328.18" r="15"/>
</clipPath>
<pattern id="c" width="10.6" height="10.6" patternUnits="userSpaceOnUse">
<path d="M0 10.6L5.3 0L10.6 10.6" fill="none" stroke="rgba(22, 147, 165, 1)"/>
</pattern>
<clipPath id="l">
<circle cx="1303.3" cy="360.15" r="68.9"/>
</clipPath>
<pattern id="b" width="11.5" height="11.5" patternUnits="userSpaceOnUse">
<path d="M0 11.5L5.75 0L11.5 11.5" fill="none" stroke="rgba(236, 240, 241, 1)"/>
</pattern>
<clipPath id="k">
<circle cx="94.18" cy="313.26" r="51.75"/>
</clipPath>
<pattern id="a" width="6.88" height="6.88" patternUnits="userSpaceOnUse">
<path d="M0 6.88L3.44 0L6.88 6.88" fill="none" stroke="rgba(22, 147, 165, 1)"/>
</pattern>
<clipPath id="j">
<circle cx="369.5" cy="272.59" r="82.56"/>
</clipPath>
</defs>
</svg>







