<?xml version="1.0" encoding="UTF-8"?>
<svg preserveAspectRatio="none" version="1.1" viewBox="0 0 1440 851" xmlns="http://www.w3.org/2000/svg">
<g fill="none" mask="url(#a)">
<path d="m125.05 192.86h41.34v44.74h-41.34z" fill="rgba(244, 247, 205, 1)"/>
<path d="m562.72 113.48h61.79v81.07h-61.79z" fill="rgba(244, 247, 205, 1)"/>
<path d="m478.1 559.68a70.61 70.61 0 1 0 141.22 0 70.61 70.61 0 1 0-141.22 0z" fill="rgba(12, 72, 108, 1)"/>
<path d="m765.16 357.71a67.11 67.11 0 1 0 25.13-131.85z" fill="rgba(244, 247, 205, 1)"/>
<path d="m839.98 829.04a31.47 31.47 0 1 0 62.94 0 31.47 31.47 0 1 0-62.94 0z" fill="rgba(12, 72, 108, 1)"/>
<path d="m1026.8 195.88a78.27 78.27 0 1 0-134.09 80.78z" stroke="rgba(236, 240, 241, 1)"/>
<path d="m1040.6 525.3h54.6v11.99h-54.6z" fill="rgba(244, 247, 205, 1)"/>
<path d="m216.08 493.34a67.97 67.97 0 1 0 135.94 0 67.97 67.97 0 1 0-135.94 0z" stroke="rgba(244, 247, 205, 1)"/>
<path d="m403.72 785.03a33.6 33.6 0 1 0 7.96-66.72z" stroke="rgba(255, 152, 153, 1)"/>
<path d="m36.47 728.05a15.82 15.82 0 1 0 31.64 0 15.82 15.82 0 1 0-31.64 0z" stroke="rgba(205, 247, 229, 1)"/>
<path d="m440.01 470.04a5.25 5.25 0 1 0 8.12 6.66z" fill="rgba(205, 247, 229, 1)"/>
<path d="m1333 457.59h81.17v81.17h-81.17z" stroke="rgba(244, 247, 205, 1)"/>
<path d="m683.36 104.53a0.31 0.31 0 1 0 0.44 0.44z" fill="rgba(255, 152, 153, 1)"/>
<path d="m379.41 266.43a50.78 50.78 0 1 0 45.43 90.83z" stroke="rgba(255, 152, 153, 1)"/>
<path d="m555.75 516.21a56.18 56.18 0 1 0-112.03-8.71z" fill="rgba(255, 152, 153, 1)"/>
<path d="m459.06 89.12a73.63 73.63 0 1 0 147.26 0 73.63 73.63 0 1 0-147.26 0z" fill="rgba(205, 247, 229, 1)"/>
<path d="m860.99 416.53h69.17v69.17h-69.17z" fill="rgba(236, 240, 241, 1)"/>
<path d="m962.81 659.81h40.91v40.91h-40.91z" fill="rgba(12, 72, 108, 1)"/>
<path d="m910.16 159.62a67.58 67.58 0 1 0 135.16 0 67.58 67.58 0 1 0-135.16 0z" fill="rgba(255, 152, 153, 1)"/>
<path d="m343.73 672.07v71.35z" fill="rgba(12, 72, 108, 1)"/>
<path d="m810.39 570.26h54.38v54.38h-54.38z" stroke="rgba(244, 247, 205, 1)"/>
<path d="m384.98 845.54a58.28 58.28 0 1 0-10.29-116.11z" stroke="rgba(12, 72, 108, 1)"/>
</g>
<defs>
<mask id="a">
<rect width="1440" height="851" fill="#fff"/>
</mask>
</defs>
</svg>






