<?xml version="1.0" encoding="UTF-8"?>
<svg preserveAspectRatio="none" version="1.1" viewBox="0 0 1440 560" xmlns="http://www.w3.org/2000/svg">
<g fill="none" mask="url(#a)">
<path d="m941.88 432.53a9.87 9.87 0 1 0 19.74 0 9.87 9.87 0 1 0-19.74 0z" fill="rgba(255, 152, 153, 1)"/>
<path d="m1231.7 555.06h4.39v4.39h-4.39z" fill="rgba(255, 152, 153, 1)"/>
<path d="m1202.5 468.75h52.69v52.69h-52.69z" fill="rgba(255, 152, 153, 1)"/>
<path d="m743.18 309.94h53.4v53.4h-53.4z" stroke="rgba(255, 152, 153, 1)"/>
<path d="m297.22 413.88a43.37 43.37 0 1 0-16.56 85.14z" fill="rgba(205, 247, 229, 1)"/>
<path d="m229.7 4.58a44.09 44.09 0 1 0 87.6 10.1z" fill="rgba(205, 247, 229, 1)"/>
<path d="m1028.1 223.56h33.98v50.1h-33.98z" stroke="rgba(255, 152, 153, 1)"/>
<path d="m427.5 282.88a35.4 35.4 0 1 0 70.8 0 35.4 35.4 0 1 0-70.8 0z" stroke="rgba(236, 240, 241, 1)"/>
<path d="m1016.1 131.1h1.9v1.9h-1.9z" stroke="rgba(244, 247, 205, 1)"/>
<path d="m673.95 559.89a41.57 41.57 0 1 0-23.96-79.62z" fill="rgba(244, 247, 205, 1)"/>
<path d="m76.72 157.25h50.92v34.22h-50.92z" fill="rgba(255, 152, 153, 1)"/>
<path d="m1413.5 189.41a8.15 8.15 0 1 0 16.3 0 8.15 8.15 0 1 0-16.3 0z" fill="rgba(205, 247, 229, 1)"/>
<path d="m828.59 249.06h35.81v35.81h-35.81z" stroke="rgba(12, 72, 108, 1)"/>
<path d="m6.85 287.51h46.07v46.07h-46.07z" stroke="rgba(12, 72, 108, 1)"/>
<path d="m1382.4 526.79a7.07 7.07 0 1 0 9.96 10.04z" fill="rgba(205, 247, 229, 1)"/>
<path d="m877.96 426.44h5.57v30.2h-5.57z" fill="rgba(205, 247, 229, 1)"/>
<path d="m347.71 511.06a27.21 27.21 0 1 0 54.42 0 27.21 27.21 0 1 0-54.42 0z" stroke="rgba(255, 152, 153, 1)"/>
<path d="m687.45 3.35a40.11 40.11 0 1 0 80.22 0 40.11 40.11 0 1 0-80.22 0z" stroke="rgba(205, 247, 229, 1)"/>
<path d="m17.51 541.35h46.23v46.23h-46.23z" stroke="rgba(244, 247, 205, 1)"/>
<path d="m140.18 169.55h17.06v26.7h-17.06z" fill="rgba(12, 72, 108, 1)"/>
<path d="m271.21 284.37a2.55 2.55 0 1 0-4-3.17z" fill="rgba(12, 72, 108, 1)"/>
<path d="m314.83 263.86a6.82 6.82 0 1 0 13.64 0 6.82 6.82 0 1 0-13.64 0z" fill="rgba(255, 152, 153, 1)"/>
<path d="m1128.8 516.04a10.37 10.37 0 1 0 12.16 16.81z" stroke="rgba(236, 240, 241, 1)"/>
<path d="m1355.6 164.53h33.34v49.71h-33.34z" fill="rgba(244, 247, 205, 1)"/>
<path d="m671.92 316.82a22.97 22.97 0 1 0 45.74 4.22z" fill="rgba(12, 72, 108, 1)"/>
<path d="m1291.3 468.97h16.25v13.76h-16.25z" stroke="rgba(12, 72, 108, 1)"/>
<path d="m1087.9 230.42h31.03v16.31h-31.03z" stroke="rgba(244, 247, 205, 1)"/>
<path d="m1041.7 179.63a40.58 40.58 0 1 0 81.16 0 40.58 40.58 0 1 0-81.16 0z" fill="rgba(205, 247, 229, 1)"/>
<path d="m1411.8 141.81h23.41v23.41h-23.41z" stroke="rgba(205, 247, 229, 1)"/>
<path d="m1260.5 9.71h44.87v43.41h-44.87z" stroke="rgba(205, 247, 229, 1)"/>
<path d="m1284.9 124.27h52.13v40.3h-52.13z" stroke="rgba(255, 152, 153, 1)"/>
<path d="m155.25 345.37h40.09v40.09h-40.09z" stroke="rgba(255, 152, 153, 1)"/>
<path d="m200.06 505.02h26.62v26.62h-26.62z" fill="rgba(244, 247, 205, 1)"/>
</g>
<defs>
<mask id="a">
<rect width="1440" height="560" fill="#fff"/>
</mask>
</defs>
</svg>



