<?xml version="1.0" encoding="UTF-8"?>
<svg preserveAspectRatio="none" version="1.1" viewBox="0 0 1440 851" xmlns="http://www.w3.org/2000/svg">
<g fill="none" mask="url(#a)">
<path d="m26.81 92.98a78.4 78.4 0 1 0 156.8 0 78.4 78.4 0 1 0-156.8 0z" fill="rgba(244, 247, 205, 1)"/>
<path d="m57.29 767.39a81.38 81.38 0 1 0 162.76 0 81.38 81.38 0 1 0-162.76 0z" fill="rgba(205, 247, 229, 1)"/>
<path d="m993.9 507.3a13.77 13.77 0 1 0 27.38-3z" fill="rgba(12, 72, 108, 1)"/>
<path d="m241.53 599.24h49.37v41.59h-49.37z" fill="rgba(244, 247, 205, 1)"/>
<path d="m426.82 159.79h52.48v0.07h-52.48z" fill="rgba(244, 247, 205, 1)"/>
<path d="m852.71 200.68h45.94v45.94h-45.94z" fill="rgba(12, 72, 108, 1)"/>
<path d="m690.47 830.79a63.15 63.15 0 1 0-101.44-75.25z" fill="rgba(244, 247, 205, 1)"/>
<path d="m899.04 710.98a45.37 45.37 0 1 0 83.27-36.05z" stroke="rgba(255, 152, 153, 1)"/>
<path d="m589.2 363.65a66.74 66.74 0 1 0 89.06 99.42z" stroke="rgba(205, 247, 229, 1)"/>
<path d="m477.07 554.92a47.05 47.05 0 1 0-92.43 17.63z" stroke="rgba(205, 247, 229, 1)"/>
<path d="m1253.7 599.09a67.74 67.74 0 1 0 135.48 0 67.74 67.74 0 1 0-135.48 0z" fill="rgba(244, 247, 205, 1)"/>
<path d="m1078.8 801.26h59.36v59.36h-59.36z" stroke="rgba(205, 247, 229, 1)"/>
<path d="m1080.7 165.24a55.07 55.07 0 1 0 110.14 0 55.07 55.07 0 1 0-110.14 0z" fill="rgba(255, 152, 153, 1)"/>
<path d="m1152.8 181.06a67.32 67.32 0 1 0 134.64 0 67.32 67.32 0 1 0-134.64 0z" stroke="rgba(236, 240, 241, 1)"/>
<path d="m107.83 712.7a4.46 4.46 0 1 0 6.16 6.45z" stroke="rgba(12, 72, 108, 1)"/>
<path d="m330.21 213.77h26.66v26.66h-26.66z" stroke="rgba(12, 72, 108, 1)"/>
<path d="m662.16 248.26a11.67 11.67 0 1 0 23.34 0 11.67 11.67 0 1 0-23.34 0z" fill="rgba(255, 152, 153, 1)"/>
<path d="m637.18 348.93h34.42v34.42h-34.42z" stroke="rgba(12, 72, 108, 1)"/>
<path d="m1335.3 147.68a76.54 76.54 0 1 0 153.08 0 76.54 76.54 0 1 0-153.08 0z" fill="rgba(236, 240, 241, 1)"/>
<path d="m580.1 732.18h46.92v46.92h-46.92z" stroke="rgba(205, 247, 229, 1)"/>
<path d="m829.72 595.22h28.97v25.28h-28.97z" stroke="rgba(205, 247, 229, 1)"/>
<path d="m282.97 249.84a49.39 49.39 0 1 0-21.53 96.4z" fill="rgba(12, 72, 108, 1)"/>
</g>
<defs>
<mask id="a">
<rect width="1440" height="851" fill="#fff"/>
</mask>
</defs>
</svg>

