<?xml version="1.0" encoding="UTF-8"?>
<svg version="1.1" xmlns="http://www.w3.org/2000/svg" width="600" height="600">
<path d="M0 0 C198 0 396 0 600 0 C600 198 600 396 600 600 C402 600 204 600 0 600 C0 402 0 204 0 0 Z " fill="#FEFEFE" transform="translate(0,0)"/>
<path d="M0 0 C1.32 0 2.64 0 4 0 C4 0.66 4 1.32 4 2 C4.99 2 5.98 2 7 2 C7 1.34 7 0.68 7 0 C8.32 0 9.64 0 11 0 C11 0.99 11 1.98 11 3 C11.99 3 12.98 3 14 3 C14 2.01 14 1.02 14 0 C15.65 0 17.3 0 19 0 C19 0.66 19 1.32 19 2 C19.66 2 20.32 2 21 2 C21 1.34 21 0.68 21 0 C22.32 0 23.64 0 25 0 C25 0.66 25 1.32 25 2 C25.99 2 26.98 2 28 2 C28 1.34 28 0.68 28 0 C29.65 0 31.3 0 33 0 C33.20086443 3.71599191 33.1519437 4.77208445 31 8 C30.61500109 9.65549531 30.27206865 11.3222433 30 13 C30.99 13 31.98 13 33 13 C33.144375 12.21625 33.28875 11.4325 33.4375 10.625 C34 8 34 8 35 6 C37.62561109 5.91925797 40.24875676 5.8596377 42.875 5.8125 C43.99455078 5.77479492 43.99455078 5.77479492 45.13671875 5.73632812 C47.3046875 5.70703125 47.3046875 5.70703125 51 6 C53 9 53 9 53 13 C62.57 13 72.14 13 82 13 C82.06927401 20.84335749 82.1288884 28.68563186 82.16479492 36.52905273 C82.17807017 39.19134427 82.2001744 41.85313637 82.22631836 44.51538086 C82.49793228 72.90702391 82.49793228 72.90702391 79 85 C78.75620605 85.86367188 78.51241211 86.72734375 78.26123047 87.6171875 C71.85026707 109.10842934 57.485423 128.94700604 37.91162109 140.20068359 C33.35577895 142.64778027 28.69539875 144.83603362 24 147 C22.9790625 147.5878125 21.958125 148.175625 20.90625 148.78125 C17.29338396 150.29632285 15.73983388 150.09412542 12 149 C9.40281986 147.90409622 6.93923085 146.77917657 4.4375 145.5 C3.73931152 145.14470215 3.04112305 144.7894043 2.32177734 144.42333984 C-19.80692079 132.88822098 -34.5736158 115.81343404 -44 93 C-44.48919922 91.8553125 -44.48919922 91.8553125 -44.98828125 90.6875 C-51.29643116 74.12456281 -50.37363373 55.74748137 -50.1875 38.375 C-50.17241499 35.90365406 -50.15873339 33.43229913 -50.14648438 30.9609375 C-50.11638691 24.97354824 -50.05761254 18.98743671 -50 13 C-40.43 13 -30.86 13 -21 13 C-20.67 11.35 -20.34 9.7 -20 8 C-17.15751505 5.15751505 -14.36314628 5.63215079 -10.5625 5.625 C-9.88123047 5.60050781 -9.19996094 5.57601562 -8.49804688 5.55078125 C-5.22970268 5.53157453 -3.46842546 5.56403967 -1.02734375 7.8359375 C0 10 0 10 0 13 C0.99 13 1.98 13 3 13 C2.505 11.96875 2.01 10.9375 1.5 9.875 C0.02526098 6.47548422 -0.27291106 3.72978451 0 0 Z " fill="#F6B41D" transform="translate(80,233)"/>
<path d="M0 0 C3.0625 0.3125 3.0625 0.3125 6.0625 3.3125 C6.0625 6.2825 6.0625 9.2525 6.0625 12.3125 C23.8825 12.3125 41.7025 12.3125 60.0625 12.3125 C60.0625 23.2025 60.0625 34.0925 60.0625 45.3125 C20.7925 45.3125 -18.4775 45.3125 -58.9375 45.3125 C-58.9375 49.2725 -58.9375 53.2325 -58.9375 57.3125 C-59.2675 57.3125 -59.5975 57.3125 -59.9375 57.3125 C-59.9375 42.4625 -59.9375 27.6125 -59.9375 12.3125 C-41.7875 12.3125 -23.6375 12.3125 -4.9375 12.3125 C-4.9375 9.0125 -4.9375 5.7125 -4.9375 2.3125 C-2.9375 0.3125 -2.9375 0.3125 0 0 Z " fill="#F8F9FA" transform="translate(95.9375,239.6875)"/>
<path d="M0 0 C1.32 0 2.64 0 4 0 C4 0.66 4 1.32 4 2 C4.99 2 5.98 2 7 2 C7 1.34 7 0.68 7 0 C8.32 0 9.64 0 11 0 C11 0.99 11 1.98 11 3 C11.99 3 12.98 3 14 3 C14 2.01 14 1.02 14 0 C15.65 0 17.3 0 19 0 C19 0.66 19 1.32 19 2 C19.66 2 20.32 2 21 2 C21 1.34 21 0.68 21 0 C22.32 0 23.64 0 25 0 C25 0.66 25 1.32 25 2 C25.99 2 26.98 2 28 2 C28 1.34 28 0.68 28 0 C29.65 0 31.3 0 33 0 C33.20086443 3.71599191 33.1519437 4.77208445 31 8 C30.61500109 9.65549531 30.27206865 11.3222433 30 13 C30.99 13 31.98 13 33 13 C33.144375 12.21625 33.28875 11.4325 33.4375 10.625 C34 8 34 8 35 6 C37.62561109 5.91925797 40.24875676 5.8596377 42.875 5.8125 C43.99455078 5.77479492 43.99455078 5.77479492 45.13671875 5.73632812 C47.3046875 5.70703125 47.3046875 5.70703125 51 6 C53 9 53 9 53 13 C62.57 13 72.14 13 82 13 C82.06927401 20.84335749 82.1288884 28.68563186 82.16479492 36.52905273 C82.17807017 39.19134427 82.2001744 41.85313637 82.22631836 44.51538086 C82.49793228 72.90702391 82.49793228 72.90702391 79 85 C78.75620605 85.86367188 78.51241211 86.72734375 78.26123047 87.6171875 C71.85026707 109.10842934 57.485423 128.94700604 37.91162109 140.20068359 C33.35577895 142.64778027 28.69539875 144.83603362 24 147 C22.9790625 147.5878125 21.958125 148.175625 20.90625 148.78125 C17.29338396 150.29632285 15.73983388 150.09412542 12 149 C9.40281986 147.90409622 6.93923085 146.77917657 4.4375 145.5 C3.73931152 145.14470215 3.04112305 144.7894043 2.32177734 144.42333984 C-19.80692079 132.88822098 -34.5736158 115.81343404 -44 93 C-44.48919922 91.8553125 -44.48919922 91.8553125 -44.98828125 90.6875 C-51.29643116 74.12456281 -50.37363373 55.74748137 -50.1875 38.375 C-50.17241499 35.90365406 -50.15873339 33.43229913 -50.14648438 30.9609375 C-50.11638691 24.97354824 -50.05761254 18.98743671 -50 13 C-40.43 13 -30.86 13 -21 13 C-20.67 11.35 -20.34 9.7 -20 8 C-17.15751505 5.15751505 -14.36314628 5.63215079 -10.5625 5.625 C-9.88123047 5.60050781 -9.19996094 5.57601562 -8.49804688 5.55078125 C-5.22970268 5.53157453 -3.46842546 5.56403967 -1.02734375 7.8359375 C0 10 0 10 0 13 C0.99 13 1.98 13 3 13 C2.505 11.96875 2.01 10.9375 1.5 9.875 C0.02526098 6.47548422 -0.27291106 3.72978451 0 0 Z M11 9 C11 12.3 11 15.6 11 19 C-7.15 19 -25.3 19 -44 19 C-44.0825 25.97125 -44.165 32.9425 -44.25 40.125 C-44.28641602 42.27402832 -44.32283203 44.42305664 -44.36035156 46.63720703 C-44.64762856 75.96003927 -38.00990707 101.48234043 -17.16015625 122.92578125 C-10.15867968 129.87160561 -2.33146255 135.08097773 6.375 139.625 C7.04112305 139.98053955 7.70724609 140.3360791 8.39355469 140.70239258 C12.73359312 142.8511371 15.37123219 143.43672144 20 142 C22.65680728 140.94446737 25.20176405 139.73174044 27.75 138.4375 C28.80453369 137.90612427 28.80453369 137.90612427 29.88037109 137.36401367 C35.86712396 134.25109455 40.94954024 130.47045996 46 126 C46.9796875 125.21625 47.959375 124.4325 48.96875 123.625 C64.1737492 110.95416733 73.13114188 89.1167114 76 70 C76.24851649 65.95203463 76.23481994 61.92152164 76.1953125 57.8671875 C76.19329834 56.87468994 76.19128418 55.88219238 76.18920898 54.85961914 C76.17884732 51.19803153 76.15092585 47.53651048 76.125 43.875 C76.08375 35.66625 76.0425 27.4575 76 19 C58.18 19 40.36 19 22 19 C22 16.03 22 13.06 22 10 C19.34066074 6.70898779 19.34066074 6.70898779 15.9375 6.6875 C12.87938172 6.70172688 12.87938172 6.70172688 11 9 Z " fill="#09559F" transform="translate(80,233)"/>
<path d="M0 0 C32.34 0 64.68 0 98 0 C91.13990681 17.15023298 76.7259375 29.39667456 60.5625 37.5625 C59.90056641 37.89709229 59.23863281 38.23168457 58.55664062 38.57641602 C54.71178736 40.42628906 51.28389974 41.89415592 47 42 C44.25383049 40.99873137 41.92714764 39.98631011 39.375 38.625 C38.32602539 38.08069336 38.32602539 38.08069336 37.25585938 37.52539062 C21.92497196 29.33491653 6.5865804 16.46645101 0 0 Z " fill="#FBFAF8" transform="translate(47,334)"/>
<path d="M0 0 C4.3924631 -0.07482575 8.78457672 -0.12891683 13.17749023 -0.16479492 C14.66811598 -0.17977042 16.15869851 -0.20015819 17.64916992 -0.22631836 C36.69969623 -0.55202297 36.69969623 -0.55202297 44.4375 5.4375 C48.45287496 9.45287496 49.29089822 12.21533337 49.3125 17.875 C49.19822459 23.40727408 48.6645597 27.3354403 44.60546875 31.39453125 C40.52860504 34.97597861 37.1391249 37.27341607 31.671875 37.1953125 C30.87265625 37.18886719 30.0734375 37.18242187 29.25 37.17578125 C28.0125 37.15064453 28.0125 37.15064453 26.75 37.125 C25.90953125 37.11597656 25.0690625 37.10695313 24.203125 37.09765625 C22.13529396 37.07415817 20.06761005 37.03828908 18 37 C18.13818532 40.47951523 18.28682601 43.95850495 18.4375 47.4375 C18.47681641 48.43072266 18.51613281 49.42394531 18.55664062 50.44726562 C18.59853516 51.39150391 18.64042969 52.33574219 18.68359375 53.30859375 C18.72025146 54.18314209 18.75690918 55.05769043 18.79467773 55.95874023 C18.78181066 57.9927402 18.78181066 57.9927402 20 59 C21.68183948 59.23287008 23.3712416 59.41264166 25.0625 59.5625 C25.98160156 59.64628906 26.90070313 59.73007812 27.84765625 59.81640625 C28.91306641 59.90728516 28.91306641 59.90728516 30 60 C30 61.32 30 62.64 30 64 C19.77 64 9.54 64 -1 64 C-1 62.68 -1 61.36 -1 60 C3.455 59.505 3.455 59.505 8 59 C7.67 41.18 7.34 23.36 7 5 C4.69 4.67 2.38 4.34 0 4 C0 2.68 0 1.36 0 0 Z " fill="#0E58A2" transform="translate(195,296)"/>
<path d="M0 0 C1.68375165 0.62225605 3.35767228 1.27544365 5 2 C6.33850035 1.68806136 7.67132072 1.35142604 9 1 C10.53879581 0.88708495 12.08212089 0.82540033 13.625 0.8125 C14.78902344 0.79123047 14.78902344 0.79123047 15.9765625 0.76953125 C18 1 18 1 20 3 C20.1875 5.5625 20.1875 5.5625 20 8 C19 9 19 9 16.5625 9.25 C15.716875 9.1675 14.87125 9.085 14 9 C13.34 8.01 12.68 7.02 12 6 C11.01 5.67 10.02 5.34 9 5 C9.32226562 5.54914063 9.64453125 6.09828125 9.9765625 6.6640625 C11.85085437 10.94202638 11.53030221 15.42614341 11 20 C9.28873167 23.6858087 7.79321295 25.41017499 4.5625 27.8125 C-0.85038104 29.61679368 -6.32685728 29.75590335 -12 30 C-12.495 32.475 -12.495 32.475 -13 35 C-12.09290283 35.01401855 -12.09290283 35.01401855 -11.16748047 35.02832031 C-8.4025212 35.08231722 -5.63920094 35.16590394 -2.875 35.25 C-1.92367188 35.26417969 -0.97234375 35.27835937 0.0078125 35.29296875 C5.92585465 35.49845632 9.48544583 36.06271669 14 40 C15.88585829 43.77171658 15.62672882 47.90168507 15 52 C12.29844789 57.47528309 7.72407926 60.02756109 2.24609375 62.2734375 C-4.02143212 64.30084587 -10.46406189 64.78648218 -17 64 C-20.85709618 61.50423188 -21.71725811 59.91475318 -23.0625 55.5625 C-22.9851393 51.15293984 -21.70980801 49.40661578 -19 46 C-18.34 45.01 -17.68 44.02 -17 43 C-17.7425 42.4740625 -17.7425 42.4740625 -18.5 41.9375 C-20.82850957 38.9298418 -20.44572235 36.69312806 -20 33 C-18 30.0625 -18 30.0625 -16 28 C-17.20381448 25.50638429 -18.45428722 23.31856917 -20 21 C-20.70162213 15.8031012 -20.62739539 11.32718256 -18.375 6.5625 C-12.68677723 0.42520701 -8.16247537 -0.97074665 0 0 Z " fill="#0C57A1" transform="translate(504,319)"/>
<path d="M0 0 C0 8.91 0 17.82 0 27 C1.32 26.34 2.64 25.68 4 25 C10.38452627 24.31530846 16.66709645 24.06380928 22 28 C27.92127782 34.04726245 29.29854931 37.59762851 29.31689453 46.18115234 C29.19278229 52.57523101 27.9779283 56.91059845 23.5390625 61.515625 C18.52724687 65.9423048 14.76996301 67.33154026 8.2421875 67.203125 C5.30589675 66.93711957 2.76095782 66.00398466 0 65 C-3.16944887 64.77887566 -4.95731617 64.98577206 -8 66 C-8.495 37.29 -8.495 37.29 -9 8 C-11.475 7.01 -11.475 7.01 -14 6 C-13.67 5.01 -13.34 4.02 -13 3 C-11.07421875 2.05078125 -11.07421875 2.05078125 -8.6875 1.3125 C-7.90761719 1.06113281 -7.12773437 0.80976563 -6.32421875 0.55078125 C-4 0 -4 0 0 0 Z " fill="#0A56A1" transform="translate(370,294)"/>
<path d="M0 0 C0 9.57 0 19.14 0 29 C2.64 27.68 5.28 26.36 8 25 C12.75459115 24.00519324 16.14623958 24.54983542 20.4375 26.8125 C23.49601724 29.42342935 24.8890871 30.95549937 25.31884766 35.00268555 C25.35026855 36.2019165 25.38168945 37.40114746 25.4140625 38.63671875 C25.47207031 40.58481445 25.47207031 40.58481445 25.53125 42.57226562 C25.56270517 43.94400573 25.59395251 45.31575061 25.625 46.6875 C25.66319197 48.07098785 25.70224442 49.45445223 25.7421875 50.83789062 C25.83660517 54.2251245 25.92218118 57.61235069 26 61 C27.98 61.66 29.96 62.32 32 63 C32 63.99 32 64.98 32 66 C25.07 66 18.14 66 11 66 C11 64.68 11 63.36 11 62 C12.98 62 14.96 62 17 62 C16.94829146 57.56153524 16.85325084 53.12504143 16.75 48.6875 C16.73582031 47.42486328 16.72164062 46.16222656 16.70703125 44.86132812 C16.67480469 43.65283203 16.64257812 42.44433594 16.609375 41.19921875 C16.58842773 40.08377686 16.56748047 38.96833496 16.54589844 37.8190918 C16.2566322 34.90059185 16.2566322 34.90059185 14.10498047 33.13305664 C11.65389382 31.81369998 10.14114065 31.65748693 7.375 31.75 C6.21097656 31.77320313 6.21097656 31.77320313 5.0234375 31.796875 C2.93233803 31.88564845 2.93233803 31.88564845 1 33 C0.67 42.57 0.34 52.14 0 62 C1.98 62 3.96 62 6 62 C6 63.32 6 64.64 6 66 C-0.93 66 -7.86 66 -15 66 C-15 65.01 -15 64.02 -15 63 C-13.02 62.34 -11.04 61.68 -9 61 C-9 43.51 -9 26.02 -9 8 C-11.475 7.01 -11.475 7.01 -14 6 C-13.67 4.68 -13.34 3.36 -13 2 C-8.28741428 0.72201065 -4.95734952 0 0 0 Z " fill="#0C57A1" transform="translate(538,294)"/>
<path d="M0 0 C4.95 0 9.9 0 15 0 C15.03738281 2.03542969 15.07476562 4.07085937 15.11328125 6.16796875 C15.16197494 8.15049756 15.21077194 10.13302528 15.26245117 12.11547852 C15.29559806 13.48775958 15.32366171 14.86017362 15.34643555 16.23266602 C15.38016766 18.21137766 15.4340149 20.18971376 15.48828125 22.16796875 C15.51446533 23.35672607 15.54064941 24.5454834 15.56762695 25.77026367 C16.03464498 29.25879075 16.89295239 31.20506236 19 34 C20.93287396 34.67368184 20.93287396 34.67368184 23 34.4375 C23.680625 34.41558594 24.36125 34.39367187 25.0625 34.37109375 C27.31663036 34.06933606 27.31663036 34.06933606 30 32 C30.41789089 29.08935621 30.41789089 29.08935621 30.29296875 25.6796875 C30.28330078 24.42285156 30.27363281 23.16601562 30.26367188 21.87109375 C30.23853516 20.55238281 30.21339844 19.23367188 30.1875 17.875 C30.17245483 16.53517097 30.15876613 15.19532596 30.14648438 13.85546875 C30.11102872 10.56991158 30.06160849 7.28515418 30 4 C27.69 3.67 25.38 3.34 23 3 C23 2.01 23 1.02 23 0 C28.61 0 34.22 0 40 0 C40 10.89 40 21.78 40 33 C41.65 33.33 43.3 33.66 45 34 C45 34.99 45 35.98 45 37 C40.15758367 38.33583899 36.06562383 39.25328119 31 39 C31 38.01 31 37.02 31 36 C29.865625 36.66 28.73125 37.32 27.5625 38 C23.0135797 40.25832923 19.01678622 40.94782793 14 40 C9.87471629 37.63015616 8.45151724 35.4363329 7 31 C6.68115234 28.0456543 6.68115234 28.0456543 6.5859375 24.82421875 C6.54726563 23.66728516 6.50859375 22.51035156 6.46875 21.31835938 C6.4378125 20.12017578 6.406875 18.92199219 6.375 17.6875 C6.33632813 16.46998047 6.29765625 15.25246094 6.2578125 13.99804688 C6.16371998 10.99884772 6.07807791 7.99965177 6 5 C4.02 4.34 2.04 3.68 0 3 C0 2.01 0 1.02 0 0 Z " fill="#0955A0" transform="translate(400,321)"/>
<path d="M0 0 C4.29885124 2.83886402 6.5211411 5.10212785 8 10 C8.21447731 12.69350073 8.32498534 15.24815841 8.3125 17.9375 C8.32861328 18.62779297 8.34472656 19.31808594 8.36132812 20.02929688 C8.36665533 25.64950115 6.96070891 29.38386998 3.62109375 33.83984375 C1.39738424 35.4312696 -0.22030563 35.5012099 -2.9375 35.5625 C-3.79214844 35.60503906 -4.64679688 35.64757812 -5.52734375 35.69140625 C-8.46153203 34.87094602 -9.70984846 33.69312024 -11.24780273 31.07055664 C-12.89920402 26.52478114 -12.61132496 21.71373007 -12.5625 16.9375 C-12.58634766 15.86177734 -12.61019531 14.78605469 -12.63476562 13.67773438 C-12.62022038 5.85724063 -12.62022038 5.85724063 -9.6796875 1.79296875 C-6.09804147 -0.60349703 -4.23349598 -0.74271859 0 0 Z " fill="#F5F8FB" transform="translate(382,322)"/>
<path d="M0 0 C0.74507813 0.00902344 1.49015625 0.01804687 2.2578125 0.02734375 C4.08868059 0.05081642 5.91938238 0.08668475 7.75 0.125 C8.08 4.085 8.41 8.045 8.75 12.125 C7.76 12.125 6.77 12.125 5.75 12.125 C4.3773318 10.15178947 3.04572383 8.14956848 1.75 6.125 C-1.48253796 3.96997469 -2.50150923 3.65643865 -6.25 4.125 C-8.25 5.125 -8.25 5.125 -9.25 7.125 C-9.64973055 10.15143583 -9.64973055 10.15143583 -8.25 13.125 C-5.76456685 14.8918956 -3.0663439 15.98295963 -0.25 17.125 C7.36538462 20.6397929 7.36538462 20.6397929 9.75 24.125 C10.62852202 28.82240345 10.20028773 32.22442454 8.0625 36.5 C4.52796532 40.5121745 2.18341359 42.01970517 -3.23828125 42.41796875 C-4.67998091 42.39821944 -6.12153998 42.36272113 -7.5625 42.3125 C-8.67334961 42.29219727 -8.67334961 42.29219727 -9.80664062 42.27148438 C-11.62141075 42.23635979 -13.43580288 42.18255972 -15.25 42.125 C-15.75559908 40.68945975 -16.2542749 39.2514798 -16.75 37.8125 C-17.0284375 37.01199219 -17.306875 36.21148437 -17.59375 35.38671875 C-18.25 33.125 -18.25 33.125 -18.25 30.125 C-16.93 30.125 -15.61 30.125 -14.25 30.125 C-12.0625 33.0625 -12.0625 33.0625 -10.25 36.125 C-9.0275907 37.56744751 -9.0275907 37.56744751 -5.375 37.375 C-2.74923745 37.33264899 -1.53496525 37.29419812 0.75 35.9375 C2.13323858 33.43038007 2.24315303 31.9430173 1.75 29.125 C-1.00818221 26.6489046 -3.70561105 25.48743633 -7.1875 24.3125 C-12.16405757 22.36451218 -14.55957135 20.78840966 -17.25 16.125 C-18.10840299 12.54832087 -18.07681969 9.60285882 -16.2578125 6.3515625 C-11.51311778 0.31018102 -7.33438137 -0.16845752 0 0 Z " fill="#135CA4" transform="translate(345.25,318.875)"/>
<path d="M0 0 C0 2.97 0 5.94 0 9 C3.96 9 7.92 9 12 9 C12.33 10.32 12.66 11.64 13 13 C12 14 12 14 9.27734375 14.09765625 C7.62412109 14.08025391 7.62412109 14.08025391 5.9375 14.0625 C4.83277344 14.05347656 3.72804688 14.04445313 2.58984375 14.03515625 C1.73519531 14.02355469 0.88054687 14.01195312 0 14 C0.10967098 18.27137254 0.2403499 22.54184766 0.375 26.8125 C0.4059375 28.02744141 0.436875 29.24238281 0.46875 30.49414062 C0.50742187 31.65751953 0.54609375 32.82089844 0.5859375 34.01953125 C0.6173584 35.09307861 0.6487793 36.16662598 0.68115234 37.27270508 C0.81592307 40.2160765 0.81592307 40.2160765 3 43 C6.83204782 43.34062647 10.26888555 42.87790928 14 42 C13.875 43.8125 13.875 43.8125 13 46 C8.3145959 49.27978287 3.55488182 49.94289507 -2 49 C-5.33600367 46.94161475 -6.8262176 45.2606736 -9 42 C-9.22705078 39.08911133 -9.22705078 39.08911133 -9.1953125 35.58203125 C-9.18564453 33.70161133 -9.18564453 33.70161133 -9.17578125 31.78320312 C-9.15902344 30.47287109 -9.14226562 29.16253906 -9.125 27.8125 C-9.11496639 26.47722013 -9.1058412 25.14193311 -9.09765625 23.80664062 C-9.07405292 20.53757985 -9.04112594 17.26887972 -9 14 C-10.65 14 -12.3 14 -14 14 C-13.50314143 9.74689068 -11.08038643 7.67968742 -8.125 4.75 C-7.24070312 3.85796875 -6.35640625 2.9659375 -5.4453125 2.046875 C-3 0 -3 0 0 0 Z " fill="#155DA4" transform="translate(281,312)"/>
<path d="M0 0 C0.33 1.98 0.66 3.96 1 6 C1.43570312 5.6390625 1.87140625 5.278125 2.3203125 4.90625 C5.38836036 2.51556336 7.32490279 1.09087847 11.25 0.5625 C14 1 14 1 17 3 C17.25660094 6.07921132 17.39431504 8.21136993 16 11 C13.125 11.125 13.125 11.125 10 11 C9.34 10.34 8.68 9.68 8 9 C4.17435335 9.18757062 4.17435335 9.18757062 1 11 C0.84174742 12.99782126 0.74880829 15.00088834 0.68359375 17.00390625 C0.64169922 18.21884766 0.59980469 19.43378906 0.55664062 20.68554688 C0.51732422 21.96494141 0.47800781 23.24433594 0.4375 24.5625 C0.39431641 25.84576172 0.35113281 27.12902344 0.30664062 28.45117188 C0.200152 31.63399853 0.09814038 34.81690674 0 38 C2.31 38 4.62 38 7 38 C7.33 39.32 7.66 40.64 8 42 C0.41 42 -7.18 42 -15 42 C-15 40.68 -15 39.36 -15 38 C-12.03 37.505 -12.03 37.505 -9 37 C-9 28.09 -9 19.18 -9 10 C-11.475 9.01 -11.475 9.01 -14 8 C-14 6.68 -14 5.36 -14 4 C-13.37351562 3.79503906 -12.74703125 3.59007812 -12.1015625 3.37890625 C-11.28429687 3.10949219 -10.46703125 2.84007812 -9.625 2.5625 C-8.81289063 2.29566406 -8.00078125 2.02882813 -7.1640625 1.75390625 C-2.12953368 0 -2.12953368 0 0 0 Z " fill="#0E59A2" transform="translate(464,318)"/>
<path d="M0 0 C5.09519062 0.05286839 7.96477097 0.75335065 11.8125 4.3125 C15.33351032 8.18561135 15.48712161 12.46791963 15.37109375 17.51171875 C14.4221591 22.26966383 11.53157361 25.33405561 7.8125 28.3125 C4.66319107 29.36226964 2.42435544 29.41381595 -0.875 29.375 C-1.86886719 29.36597656 -2.86273438 29.35695313 -3.88671875 29.34765625 C-5.02560547 29.33025391 -5.02560547 29.33025391 -6.1875 29.3125 C-6.21215881 25.34319011 -6.23034023 21.37390966 -6.24243164 17.40454102 C-6.24747057 16.05329614 -6.25430177 14.70205674 -6.26293945 13.35083008 C-6.27502419 11.41229566 -6.28019828 9.473722 -6.28515625 7.53515625 C-6.29039307 6.36734619 -6.29562988 5.19953613 -6.30102539 3.99633789 C-6.10618947 -0.60975096 -4.14876248 0.10637853 0 0 Z " fill="#F6F9FB" transform="translate(219.1875,299.6875)"/>
<path d="M0 0 C0.99 0 1.98 0 3 0 C3 2.97 3 5.94 3 9 C7.29 9 11.58 9 16 9 C16 10.65 16 12.3 16 14 C11.71 14 7.42 14 3 14 C3.08683801 18.08438085 3.19371631 22.16653044 3.3125 26.25 C3.33505859 27.40886719 3.35761719 28.56773437 3.38085938 29.76171875 C3.41630859 30.87675781 3.45175781 31.99179687 3.48828125 33.140625 C3.51446533 34.16704102 3.54064941 35.19345703 3.56762695 36.25097656 C4.05471043 39.34784834 4.80983773 40.78084642 7 43 C9.52653421 43.26725096 9.52653421 43.26725096 12.1875 42.75 C13.08855469 42.62109375 13.98960937 42.4921875 14.91796875 42.359375 C15.60503906 42.24078125 16.29210937 42.1221875 17 42 C17 42.99 17 43.98 17 45 C12.7282331 48.93452215 9.10765252 49.68663248 3.34375 49.4609375 C-0.29546317 48.74522558 -1.88166924 46.93832976 -4 44 C-5.09911549 40.70265354 -5.1139456 38.27041255 -5.09765625 34.80078125 C-5.09282227 32.98803711 -5.09282227 32.98803711 -5.08789062 31.13867188 C-5.07951172 29.87603516 -5.07113281 28.61339844 -5.0625 27.3125 C-5.05798828 26.03826172 -5.05347656 24.76402344 -5.04882812 23.45117188 C-5.03702873 20.30073436 -5.02056597 17.15039051 -5 14 C-6.65 14 -8.3 14 -10 14 C-10 10 -10 10 -8.57421875 8.4375 C-7.95160156 7.963125 -7.32898438 7.48875 -6.6875 7 C-4.48642471 5.25508317 -2.93049274 3.90566872 -1.25 1.625 C-0.8375 1.08875 -0.425 0.5525 0 0 Z " fill="#0C57A1" transform="translate(307,312)"/>
<path d="M0 0 C3.39488422 2.05107588 4.80323081 3.70484621 7 7 C7.59992545 11.16052196 7.43783544 14.9054114 5.875 18.8125 C3.07400167 22.08033138 0.35606993 24.49210469 -3.95703125 25.421875 C-7.83825966 25.68903413 -10.29463091 25.1767298 -13.375 22.75 C-17.318487 18.61872791 -18.57121215 15.99022871 -18.4609375 10.1015625 C-17.60803882 6.21292275 -14.90176501 3.59354645 -12 1 C-8.30044901 -0.84977549 -4.03799166 -0.47056911 0 0 Z " fill="#115AA3" transform="translate(447,260)"/>
<path d="M0 0 C5.61 0 11.22 0 17 0 C17 0.99 17 1.98 17 3 C15.35 3 13.7 3 12 3 C12.08104226 7.06330657 12.19387434 11.12513061 12.3125 15.1875 C12.33505859 16.33798828 12.35761719 17.48847656 12.38085938 18.67382812 C12.41630859 19.78564453 12.45175781 20.89746094 12.48828125 22.04296875 C12.51446533 23.06414795 12.54064941 24.08532715 12.56762695 25.13745117 C13.06162705 28.40800518 14.06411054 30.3384116 16 33 C19.21929573 34.60964787 22.51887712 34.60686242 26 34 C29.21954645 31.46546343 30.70432435 29.88702695 32 26 C32.08178114 24.29983156 32.10749501 22.59663703 32.09765625 20.89453125 C32.09443359 19.91162109 32.09121094 18.92871094 32.08789062 17.91601562 C32.07951172 16.89185547 32.07113281 15.86769531 32.0625 14.8125 C32.05798828 13.77673828 32.05347656 12.74097656 32.04882812 11.67382812 C32.0370401 9.11582734 32.02058515 6.55794267 32 4 C29.03 3.505 29.03 3.505 26 3 C26 2.01 26 1.02 26 0 C31.28 0 36.56 0 42 0 C42 0.99 42 1.98 42 3 C40.35 3.33 38.7 3.66 37 4 C36.98018066 4.6705542 36.96036133 5.3411084 36.93994141 6.03198242 C36.84440285 9.08420161 36.73484055 12.13576341 36.625 15.1875 C36.57859375 16.77014648 36.57859375 16.77014648 36.53125 18.38476562 C36.49257812 19.40634766 36.45390625 20.42792969 36.4140625 21.48046875 C36.3826416 22.41785889 36.3512207 23.35524902 36.31884766 24.32104492 C35.63290788 30.08430466 33.31133154 33.20192221 29 37 C24.51085194 39.70669221 20.10463937 39.64615688 15 39 C10.41264948 36.79127567 6.87473427 33.80519861 5 29 C4.51107013 24.53095707 4.62355665 20.11373879 4.75 15.625 C4.76804688 14.41199219 4.78609375 13.19898438 4.8046875 11.94921875 C4.85167784 8.9653321 4.91736628 5.98307721 5 3 C3.02 3 1.04 3 -1 3 C-0.67 2.01 -0.34 1.02 0 0 Z " fill="#1C62A7" transform="translate(194,246)"/>
<path d="M0 0 C0.33 11.88 0.66 23.76 1 36 C2.65 36.33 4.3 36.66 6 37 C6 38.32 6 39.64 6 41 C-0.93 41 -7.86 41 -15 41 C-15 39.68 -15 38.36 -15 37 C-12.03 36.505 -12.03 36.505 -9 36 C-9 26.76 -9 17.52 -9 8 C-11.475 7.01 -11.475 7.01 -14 6 C-13.67 5.01 -13.34 4.02 -13 3 C-11.07421875 2.05078125 -11.07421875 2.05078125 -8.6875 1.3125 C-7.90761719 1.06113281 -7.12773437 0.80976563 -6.32421875 0.55078125 C-4 0 -4 0 0 0 Z " fill="#0E58A2" transform="translate(260,319)"/>
<path d="M0 0 C0.80695313 -0.00708984 1.61390625 -0.01417969 2.4453125 -0.02148438 C5.97617095 0.01638787 8.38027771 0.10755526 11.53125 1.78515625 C13 3.4375 13 3.4375 13.5 6.3125 C12.87827171 10.19830179 11.84786878 11.73951905 9 14.4375 C3.97586282 16.94956859 -1.49407242 17.1324229 -7 16.4375 C-10.625 14.9375 -10.625 14.9375 -13 12.4375 C-13.73740887 9.62612869 -13.83871005 7.22593861 -13 4.4375 C-9.64276009 -0.61612304 -5.52822964 -0.13688109 0 0 Z " fill="#F0F5F9" transform="translate(501,361.5625)"/>
<path d="M0 0 C0 0.99 0 1.98 0 3 C0.99 2.34 1.98 1.68 3 1 C9.9717362 0.33602512 9.9717362 0.33602512 13.23828125 2.4453125 C15.87673036 6.27135623 15.43395679 9.72183293 15.25 14.25 C15.23195313 15.09046875 15.21390625 15.9309375 15.1953125 16.796875 C15.14830798 18.86507395 15.07656724 20.93268441 15 23 C15.99 23 16.98 23 18 23 C18 23.66 18 24.32 18 25 C14.04 25 10.08 25 6 25 C6 24.34 6 23.68 6 23 C6.99 23 7.98 23 9 23 C8.67 17.39 8.34 11.78 8 6 C5.69 6 3.38 6 1 6 C0.67 11.61 0.34 17.22 0 23 C1.32 23 2.64 23 4 23 C4 23.66 4 24.32 4 25 C-0.62 25 -5.24 25 -10 25 C-10 24.34 -10 23.68 -10 23 C-8.68 22.67 -7.36 22.34 -6 22 C-6 16.72 -6 11.44 -6 6 C-6.99 5.67 -7.98 5.34 -9 5 C-8.67 4.01 -8.34 3.02 -8 2 C-5.27366306 0.89786379 -2.95855967 0 0 0 Z " fill="#165EA5" transform="translate(242,259)"/>
<path d="M0 0 C3.5542299 0.64622362 5.59136218 1.42940796 8.4375 3.625 C10.55639103 6.80333655 10.98713775 8.81852136 10.875 12.6171875 C10.24824099 15.49356368 8.66750598 17.11761995 6.28515625 18.7734375 C2.70042007 20.42559921 0.36662767 20.24867106 -3.5625 19.625 C-7.11734347 17.12904607 -8.31213436 15.3365655 -9.75 11.25 C-9.52156944 6.83367592 -8.40096418 5.06944097 -5.37890625 1.94921875 C-3.5625 0.625 -3.5625 0.625 0 0 Z " fill="#0A55A0" transform="translate(62.5625,258.375)"/>
<path d="M0 0 C3.0625 1.625 3.0625 1.625 5 4 C5 5.98 5 7.96 5 10 C0.05 10 -4.9 10 -10 10 C-8.7284644 16.59529756 -8.7284644 16.59529756 -6 19 C0.31707327 19.45384636 0.31707327 19.45384636 6 17 C5.07870137 20.09891358 4.32841931 21.72788114 1.8125 23.8125 C-1.76410378 25.32262159 -4.1483641 25.48145449 -8 25 C-11.22618733 22.9209015 -12.8669302 21.19960471 -15 18 C-15.75404037 13.44675621 -15.89494649 8.98385477 -13.97265625 4.72265625 C-10.20574773 -0.37988743 -6.10263161 -1.4022591 0 0 Z " fill="#185FA6" transform="translate(315,260)"/>
<path d="M0 0 C3.03978021 0.68164768 4.80055419 2.23591662 6.93359375 4.43359375 C8.48383839 7.53408303 8.2235139 10.01253593 7.93359375 13.43359375 C6.1379697 16.18688396 4.88104453 17.95986836 1.93359375 19.43359375 C-5.30728216 20.01753536 -5.30728216 20.01753536 -8.50390625 17.55859375 C-10.98411569 14.18550891 -11.47956159 11.71582165 -11.40234375 7.4765625 C-11.06640625 5.43359375 -11.06640625 5.43359375 -9.06640625 2.43359375 C-5.71397384 0.19863881 -3.9372435 -0.24561254 0 0 Z " fill="#08549F" transform="translate(131.06640625,258.56640625)"/>
<path d="M0 0 C5.57894737 3.15789474 5.57894737 3.15789474 7 6 C7.39447548 10.18144011 7.45035186 12.30946048 5.125 15.875 C2.21289342 18.78710658 1.3997223 18.96068305 -2.8125 19.375 C-6.16084564 19.30791111 -7.03191618 18.97938747 -10 17.0625 C-12.32353289 13.50459026 -12.79544168 11.34734473 -12.55078125 7.16015625 C-11.92326434 4.69904381 -11.22724996 3.65290827 -9.375 1.9375 C-5.67605318 -0.18596947 -4.16287602 -0.78053925 0 0 Z " fill="#07539F" transform="translate(99,341)"/>
<path d="M0 0 C4.83229566 -0.0947509 9.25758034 -0.0374043 14 1 C14.33 0.67 14.66 0.34 15 0 C16.99609375 -0.16796875 16.99609375 -0.16796875 19.4375 -0.1875 C20.64212891 -0.20876953 20.64212891 -0.20876953 21.87109375 -0.23046875 C24 0 24 0 26 2 C26.1875 4.5625 26.1875 4.5625 26 7 C25 8 25 8 22.5625 8.25 C21.716875 8.1675 20.87125 8.085 20 8 C19.34 7.01 18.68 6.02 18 5 C17.01 4.67 16.02 4.34 15 4 C15.32226562 4.54914063 15.64453125 5.09828125 15.9765625 5.6640625 C17.85085437 9.94202638 17.53030221 14.42614341 17 19 C14.68482687 23.98652675 12.10508405 26.04486143 7 28 C6.01 28 5.02 28 4 28 C4 26.68 4 25.36 4 24 C4.66 23.67 5.32 23.34 6 23 C7.78649099 19.42070533 8.29590099 16.41572851 8.3125 12.4375 C8.32925781 11.50808594 8.34601563 10.57867187 8.36328125 9.62109375 C7.93856575 6.55674859 7.13443607 5.21030465 5 3 C2.40144267 2.1957792 2.40144267 2.1957792 0 2 C0 1.34 0 0.68 0 0 Z " fill="#0955A0" transform="translate(498,320)"/>
<path d="M0 0 C3.125 0.4375 3.125 0.4375 5.5 2.25 C7.9007747 6.9592119 7.77051764 11.25057593 7.125 16.4375 C5.01861702 21.99069149 5.01861702 21.99069149 2.125 23.4375 C-0.8125 23.75 -0.8125 23.75 -3.875 23.4375 C-7.18310662 20.12939338 -8.03138404 16.63407957 -8.125 12.0625 C-8.07035361 6.4612453 -6.07696375 0.92475535 0 0 Z " fill="#F0F4F9" transform="translate(499.875,321.5625)"/>
<path d="M0 0 C3.96 0 7.92 0 12 0 C12 0.66 12 1.32 12 2 C11.01 2 10.02 2 9 2 C9.20496094 2.59167969 9.40992188 3.18335938 9.62109375 3.79296875 C10.9997571 7.83660816 12.31750847 11.76855249 13 16 C13.66 16 14.32 16 15 16 C15.1546875 15.01 15.1546875 15.01 15.3125 14 C16.19213564 10.16158991 17.56969896 6.66903309 19 3 C17.68 2.67 16.36 2.34 15 2 C15 1.34 15 0.68 15 0 C18.96 0 22.92 0 27 0 C27 0.66 27 1.32 27 2 C26.10680054 2.29704834 26.10680054 2.29704834 25.19555664 2.60009766 C22.03067844 4.61804624 21.33769175 6.97161408 19.87109375 10.3984375 C19.59531998 11.02980621 19.3195462 11.66117493 19.03541565 12.31167603 C18.15700778 14.32766604 17.29639054 16.35062701 16.4375 18.375 C15.57239312 20.39093272 14.7035407 22.4050975 13.82887268 24.41690063 C13.03494285 26.24641452 12.25240193 28.0808582 11.47045898 29.91552734 C10.19278033 32.59561901 8.88606353 34.72493806 7 37 C5.35 36.67 3.7 36.34 2 36 C2 34.35 2 32.7 2 31 C3.98 30.34 5.96 29.68 8 29 C9.2664645 23.17121159 8.58113952 19.32707864 6.625 13.75 C6.27308594 12.69039063 6.27308594 12.69039063 5.9140625 11.609375 C5.28930723 9.73510919 4.64569082 7.86715688 4 6 C3.67 5.01 3.34 4.02 3 3 C2.01 2.67 1.02 2.34 0 2 C0 1.34 0 0.68 0 0 Z " fill="#135CA4" transform="translate(393,261)"/>
<path d="M0 0 C0.5625 1.9375 0.5625 1.9375 1 4 C0 5 0 5 -2.3125 5.125 C-5 5 -5 5 -9 4 C-9.33 7.96 -9.66 11.92 -10 16 C-7.69 16 -5.38 16 -3 16 C-3 16.99 -3 17.98 -3 19 C-5.31 19 -7.62 19 -10 19 C-10 24.94 -10 30.88 -10 37 C-8.68 37 -7.36 37 -6 37 C-6 37.66 -6 38.32 -6 39 C-10.29 39 -14.58 39 -19 39 C-19 38.34 -19 37.68 -19 37 C-17.515 36.505 -17.515 36.505 -16 36 C-15.67 30.39 -15.34 24.78 -15 19 C-16.65 19 -18.3 19 -20 19 C-19.505 17.515 -19.505 17.515 -19 16 C-18.01 15.67 -17.02 15.34 -16 15 C-15.91363281 14.33613281 -15.82726562 13.67226563 -15.73828125 12.98828125 C-15.05076483 8.66765055 -14.37300327 5.56515647 -11.9375 1.875 C-7.91055502 -0.69539041 -4.64884252 -0.45576887 0 0 Z " fill="#0F59A2" transform="translate(474,245)"/>
<path d="M0 0 C0 2.31 0 4.62 0 7 C-0.66 7 -1.32 7 -2 7 C-2.45375 6.34 -2.9075 5.68 -3.375 5 C-3.91125 4.34 -4.4475 3.68 -5 3 C-6.32 3 -7.64 3 -9 3 C-9 4.65 -9 6.3 -9 8 C-8.44570313 8.26554687 -7.89140625 8.53109375 -7.3203125 8.8046875 C-6.59585937 9.15789062 -5.87140625 9.51109375 -5.125 9.875 C-4.04605469 10.39707031 -4.04605469 10.39707031 -2.9453125 10.9296875 C-1 12 -1 12 1 14 C1.36599043 17.36711191 1.37424895 19.34060899 -0.3125 22.3125 C-2.47698725 24.47698725 -4.22962588 24.96673687 -7.26171875 25.09765625 C-8.06222656 25.08605469 -8.86273438 25.07445312 -9.6875 25.0625 C-10.89986328 25.04896484 -10.89986328 25.04896484 -12.13671875 25.03515625 C-12.75160156 25.02355469 -13.36648438 25.01195312 -14 25 C-15.25664978 22.09399739 -16 20.20395416 -16 17 C-15.01 17 -14.02 17 -13 17 C-12.34 18.32 -11.68 19.64 -11 21 C-9.02 21 -7.04 21 -5 21 C-5.03093173 18.58414426 -5.03093173 18.58414426 -6 16 C-8.86656967 14.31668061 -8.86656967 14.31668061 -12 13 C-13.875 11.6875 -13.875 11.6875 -15 10 C-15.51410062 6.54818157 -15.38115483 4.68970874 -13.6875 1.625 C-9.38906162 -0.97405576 -4.89867185 -0.30405549 0 0 Z " fill="#175FA5" transform="translate(359,260)"/>
<path d="M0 0 C2.5 0.5625 2.5 0.5625 4.8125 1.875 C7.53376954 6.20887371 7.08834429 10.59099074 6.5 15.5625 C5.4375 18.75 5.4375 18.75 3.5 20.5625 C-0.1875 20.875 -0.1875 20.875 -3.5 20.5625 C-6.5652027 15.58154561 -7.4470125 11.28666445 -6.5 5.5625 C-4.65778609 2.2192229 -3.75145726 0.84407788 0 0 Z " fill="#F1F5F9" transform="translate(441.5,261.4375)"/>
<path d="M0 0 C0 0.99 0 1.98 0 3 C0.99 2.34 1.98 1.68 3 1 C6.1875 0.875 6.1875 0.875 9 1 C9.33 2.65 9.66 4.3 10 6 C6.846632 6.70074844 4.27275026 7 1 7 C0.67 12.28 0.34 17.56 0 23 C1.32 23 2.64 23 4 23 C4 23.66 4 24.32 4 25 C-0.62 25 -5.24 25 -10 25 C-10 24.34 -10 23.68 -10 23 C-8.68 23 -7.36 23 -6 23 C-6.33 17.39 -6.66 11.78 -7 6 C-7.66 5.67 -8.32 5.34 -9 5 C-9 4.01 -9 3.02 -9 2 C-2.25 0 -2.25 0 0 0 Z " fill="#1E63A8" transform="translate(332,259)"/>
<path d="M0 0 C3.96 0 7.92 0 12 0 C12 0.66 12 1.32 12 2 C11.01 2 10.02 2 9 2 C10.65 5.96 12.3 9.92 14 14 C15.65 10.04 17.3 6.08 19 2 C17.68 2 16.36 2 15 2 C15 1.34 15 0.68 15 0 C18.63 0 22.26 0 26 0 C26 0.66 26 1.32 26 2 C24.68 2 23.36 2 22 2 C21.62875 3.2375 21.2575 4.475 20.875 5.75 C18.87666889 11.80291599 15.94698158 17.36354009 13 23 C10 22 10 22 9.0168457 20.26586914 C8.73929443 19.52973389 8.46174316 18.79359863 8.17578125 18.03515625 C7.86962891 17.23529297 7.56347656 16.43542969 7.24804688 15.61132812 C6.93931641 14.77021484 6.63058594 13.92910156 6.3125 13.0625 C5.99216797 12.22525391 5.67183594 11.38800781 5.34179688 10.52539062 C3 4.31887993 3 4.31887993 3 2 C2.01 2 1.02 2 0 2 C0 1.34 0 0.68 0 0 Z " fill="#0C57A1" transform="translate(275,261)"/>
<path d="M0 0 C0 1.65 0 3.3 0 5 C1.98 5 3.96 5 6 5 C6 5.99 6 6.98 6 8 C4.02 8 2.04 8 0 8 C0.33 13.28 0.66 18.56 1 24 C3.31 24 5.62 24 8 24 C8 24.99 8 25.98 8 27 C4.60268371 29.09065618 1.95730595 29.42098999 -2 29 C-4.0636159 27.44464897 -4.90090096 26.57988921 -5.34057617 24.00708008 C-5.32486572 23.26868896 -5.30915527 22.53029785 -5.29296875 21.76953125 C-5.28330078 20.96708984 -5.27363281 20.16464844 -5.26367188 19.33789062 C-5.23853516 18.50451172 -5.21339844 17.67113281 -5.1875 16.8125 C-5.17396484 15.96751953 -5.16042969 15.12253906 -5.14648438 14.25195312 C-5.11115799 12.16769616 -5.05735139 10.08376723 -5 8 C-6.32 8 -7.64 8 -9 8 C-7.13554727 3.64961029 -5.02378599 0 0 0 Z " fill="#135CA4" transform="translate(384,256)"/>
<path d="M0 0 C4.29 0 8.58 0 13 0 C13 4.29 13 8.58 13 13 C8.71 13 4.42 13 0 13 C0 8.71 0 4.42 0 0 Z " fill="#0A5297" transform="translate(129,316)"/>
<path d="M0 0 C4.29 0 8.58 0 13 0 C13 4.29 13 8.58 13 13 C8.71 13 4.42 13 0 13 C0 8.71 0 4.42 0 0 Z " fill="#0A5297" transform="translate(103,316)"/>
<path d="M0 0 C4.29 0 8.58 0 13 0 C13 4.29 13 8.58 13 13 C8.71 13 4.42 13 0 13 C0 8.71 0 4.42 0 0 Z " fill="#0B5396" transform="translate(77,316)"/>
<path d="M0 0 C4.29 0 8.58 0 13 0 C13 4.29 13 8.58 13 13 C8.71 13 4.42 13 0 13 C0 8.71 0 4.42 0 0 Z " fill="#0B5396" transform="translate(51,316)"/>
<path d="M0 0 C4.29 0 8.58 0 13 0 C13 4.29 13 8.58 13 13 C8.71 13 4.42 13 0 13 C0 8.71 0 4.42 0 0 Z " fill="#0B5297" transform="translate(116,303)"/>
<path d="M0 0 C4.29 0 8.58 0 13 0 C13 4.29 13 8.58 13 13 C8.71 13 4.42 13 0 13 C0 8.71 0 4.42 0 0 Z " fill="#F1B21F" transform="translate(103,303)"/>
<path d="M0 0 C4.29 0 8.58 0 13 0 C13 4.29 13 8.58 13 13 C8.71 13 4.42 13 0 13 C0 8.71 0 4.42 0 0 Z " fill="#0B5397" transform="translate(90,303)"/>
<path d="M0 0 C4.29 0 8.58 0 13 0 C13 4.29 13 8.58 13 13 C8.71 13 4.42 13 0 13 C0 8.71 0 4.42 0 0 Z " fill="#F1B21F" transform="translate(77,303)"/>
<path d="M0 0 C4.29 0 8.58 0 13 0 C13 4.29 13 8.58 13 13 C8.71 13 4.42 13 0 13 C0 8.71 0 4.42 0 0 Z " fill="#0B5396" transform="translate(64,303)"/>
<path d="M0 0 C4.29 0 8.58 0 13 0 C13 4.29 13 8.58 13 13 C8.71 13 4.42 13 0 13 C0 8.71 0 4.42 0 0 Z " fill="#0A5297" transform="translate(129,290)"/>
<path d="M0 0 C4.29 0 8.58 0 13 0 C13 4.29 13 8.58 13 13 C8.71 13 4.42 13 0 13 C0 8.71 0 4.42 0 0 Z " fill="#0A5297" transform="translate(103,290)"/>
<path d="M0 0 C4.29 0 8.58 0 13 0 C13 4.29 13 8.58 13 13 C8.71 13 4.42 13 0 13 C0 8.71 0 4.42 0 0 Z " fill="#0B5397" transform="translate(77,290)"/>
<path d="M0 0 C4.29 0 8.58 0 13 0 C13 4.29 13 8.58 13 13 C8.71 13 4.42 13 0 13 C0 8.71 0 4.42 0 0 Z " fill="#0B5397" transform="translate(51,290)"/>
<path d="M0 0 C0 7.59 0 15.18 0 23 C0.99 23 1.98 23 3 23 C3 23.66 3 24.32 3 25 C-1.29 25 -5.58 25 -10 25 C-10 24.34 -10 23.68 -10 23 C-8.68 23 -7.36 23 -6 23 C-6 17.06 -6 11.12 -6 5 C-6.99 5 -7.98 5 -9 5 C-9 4.01 -9 3.02 -9 2 C-2.25 0 -2.25 0 0 0 Z " fill="#1C62A7" transform="translate(372,259)"/>
<path d="M0 0 C0 7.59 0 15.18 0 23 C0.99 23 1.98 23 3 23 C3 23.66 3 24.32 3 25 C-1.29 25 -5.58 25 -10 25 C-10 24.34 -10 23.68 -10 23 C-8.68 23 -7.36 23 -6 23 C-6 17.06 -6 11.12 -6 5 C-6.99 5 -7.98 5 -9 5 C-8.67 4.01 -8.34 3.02 -8 2 C-5.27366306 0.89786379 -2.95855967 0 0 0 Z " fill="#1B61A7" transform="translate(272,259)"/>
<path d="M0 0 C1.32 0 2.64 0 4 0 C4 0.99 4 1.98 4 3 C5.32 3 6.64 3 8 3 C8 2.01 8 1.02 8 0 C9.65 0 11.3 0 13 0 C13 0.66 13 1.32 13 2 C13.99 2 14.98 2 16 2 C16 1.34 16 0.68 16 0 C17.65 0 19.3 0 21 0 C21.23150455 2.7780546 21.1818462 4.60789414 20 7.15625 C17.42650861 9.52868738 15.45924609 9.41328952 12.04882812 9.3515625 C11.31083984 9.31804687 10.57285156 9.28453125 9.8125 9.25 C9.06291016 9.23195312 8.31332031 9.21390625 7.54101562 9.1953125 C5.6934629 9.14824109 3.84656841 9.07649766 2 9 C0.25434889 5.78360346 -0.204437 3.67986596 0 0 Z " fill="#1A61A6" transform="translate(86,216)"/>
<path d="M0 0 C1.65 0 3.3 0 5 0 C5 0.99 5 1.98 5 3 C5.99 3 6.98 3 8 3 C8 2.01 8 1.02 8 0 C9.65 0 11.3 0 13 0 C13 0.99 13 1.98 13 3 C13.99 3 14.98 3 16 3 C16 2.01 16 1.02 16 0 C17.65 0 19.3 0 21 0 C21.23315445 2.79785341 21.19737308 4.59490469 19.95703125 7.140625 C17.0903544 9.86425411 14.24440759 9.58558646 10.5 9.5 C9.48486328 9.52320313 9.48486328 9.52320313 8.44921875 9.546875 C5.19461508 9.52119765 3.44601735 9.423761 1.04296875 7.140625 C-0.19737308 4.59490469 -0.23315445 2.79785341 0 0 Z " fill="#1B61A7" transform="translate(59,222)"/>
<path d="M0 0 C1.32 0 2.64 0 4 0 C4 0.66 4 1.32 4 2 C5.32 2 6.64 2 8 2 C8 1.34 8 0.68 8 0 C9.32 0 10.64 0 12 0 C12 0.66 12 1.32 12 2 C13.32 2 14.64 2 16 2 C16 1.34 16 0.68 16 0 C17.32 0 18.64 0 20 0 C20.22057835 3.97041037 19.88343932 5.23312136 18 9 C12.72 9 7.44 9 2 9 C0.11656068 5.23312136 -0.22057835 3.97041037 0 0 Z " fill="#185FA6" transform="translate(113,222)"/>
<path d="M0 0 C0.86625 0.144375 1.7325 0.28875 2.625 0.4375 C1.8 1.241875 0.975 2.04625 0.125 2.875 C-2.69474315 6.26188695 -2.92490161 8.86539552 -2.68359375 13.1796875 C-2.24063505 16.42057519 -1.42896683 19.34147244 -0.375 22.4375 C-4.0523705 22.23320164 -5.17584985 21.65817989 -7.6875 18.875 C-9.63736506 14.90305265 -10.46305943 11.73203759 -9.375 7.4375 C-7.01876085 3.16883386 -4.9321795 0.6393566 0 0 Z " fill="#0E59A2" transform="translate(438.375,260.5625)"/>
<path d="M0 0 C2.4375 0.8125 2.4375 0.8125 4.4375 2.8125 C4.6875 5.3125 4.6875 5.3125 4.4375 7.8125 C2.4375 9.8125 2.4375 9.8125 -0.5625 10.0625 C-3.5625 9.8125 -3.5625 9.8125 -5.5625 7.8125 C-5.93046448 4.94237704 -5.93759409 3.40475382 -4.375 0.9375 C-2.5625 -0.1875 -2.5625 -0.1875 0 0 Z " fill="#0E58A2" transform="translate(256.5625,296.1875)"/>
<path d="M0 0 C0.99 0 1.98 0 3 0 C3 0.66 3 1.32 3 2 C4.32 2 5.64 2 7 2 C6.39254603 6.85963179 4.27241033 10.7405518 2 15 C-0.05123248 12.94876752 -0.64147118 11.72994937 -1.625 9.0625 C-1.88539063 8.37285156 -2.14578125 7.68320312 -2.4140625 6.97265625 C-3 5 -3 5 -3 2 C-2.01 2 -1.02 2 0 2 C0 1.34 0 0.68 0 0 Z " fill="#EBF1F7" transform="translate(287,261)"/>
<path d="M0 0 C5.28 0 10.56 0 16 0 C16 1.32 16 2.64 16 4 C10.72 4 5.44 4 0 4 C0 2.68 0 1.36 0 0 Z " fill="#306FAF" transform="translate(115,233)"/>
<path d="M0 0 C4.04146606 -0.31697773 6.37764693 -0.35752198 9.9375 1.6875 C12 4 12 4 12 9 C7.71 9 3.42 9 -1 9 C-1 8.67 -1 8.34 -1 8 C1.64 8 4.28 8 7 8 C6.45291273 5.46255685 6.45291273 5.46255685 5 3 C1.94727535 2.10169161 1.94727535 2.10169161 -1 2 C-0.67 1.34 -0.34 0.68 0 0 Z " fill="#08549F" transform="translate(308,260)"/>
<path d="M0 0 C4.95 0 9.9 0 15 0 C15 1.32 15 2.64 15 4 C10.05 4 5.1 4 0 4 C0 2.68 0 1.36 0 0 Z " fill="#2668AB" transform="translate(62,233)"/>
<path d="M0 0 C4.95 0 9.9 0 15 0 C15 1.32 15 2.64 15 4 C10.05 4 5.1 4 0 4 C0 2.68 0 1.36 0 0 Z " fill="#2367AA" transform="translate(89,227)"/>
<path d="M0 0 C0.99 0 1.98 0 3 0 C4.29925791 4.33085971 5.343621 8.51474352 6 13 C5.01 13 4.02 13 3 13 C2.66355469 12.02804688 2.32710937 11.05609375 1.98046875 10.0546875 C0.25975855 6.62091276 0.25975855 6.62091276 -3.57421875 6.1953125 C-4.94448986 6.14235516 -6.31621551 6.11987849 -7.6875 6.125 C-8.7403418 6.0940625 -8.7403418 6.0940625 -9.81445312 6.0625 C-11.54245468 6.01547955 -13.27136406 6.00425249 -15 6 C-15 5.67 -15 5.34 -15 5 C-10.05 5 -5.1 5 0 5 C0 3.35 0 1.7 0 0 Z " fill="#DFE9F2" transform="translate(77,233)"/>
<path d="M0 0 C1.21236328 0.04060547 1.21236328 0.04060547 2.44921875 0.08203125 C3.06410156 0.11683594 3.67898438 0.15164062 4.3125 0.1875 C4.875 2.125 4.875 2.125 5.3125 4.1875 C4.3125 5.1875 4.3125 5.1875 2 5.3125 C-0.6875 5.1875 -0.6875 5.1875 -2.6875 4.5 C-5.7058476 4.02838319 -7.26491572 5.50514981 -9.6875 7.1875 C-7.45089065 2.19814067 -5.70862614 -0.24820114 0 0 Z " fill="#145CA4" transform="translate(469.6875,244.8125)"/>
<path d="M0 0 C2.5625 0.1875 2.5625 0.1875 4.5625 2.1875 C4.5625 3.5075 4.5625 4.8275 4.5625 6.1875 C1.5925 6.1875 -1.3775 6.1875 -4.4375 6.1875 C-3.3735 0.2595 -3.3735 0.2595 0 0 Z " fill="#D2E0ED" transform="translate(310.4375,261.8125)"/>
<path d="M0 0 C-0.33 0.99 -0.66 1.98 -1 3 C-1 2.34 -1 1.68 -1 1 C-2.32 1 -3.64 1 -5 1 C-5 1.66 -5 2.32 -5 3 C-5.66 3 -6.32 3 -7 3 C-7 2.34 -7 1.68 -7 1 C-8.65 1 -10.3 1 -12 1 C-12 1.99 -12 2.98 -12 4 C-12.99 4 -13.98 4 -15 4 C-15 3.01 -15 2.02 -15 1 C-16.32 0.67 -17.64 0.34 -19 0 C-12.94932758 -1.76070375 -6.07663119 -1.62043498 0 0 Z " fill="#CDDCEB" transform="translate(106,232)"/>
<path d="M0 0 C2.64 0 5.28 0 8 0 C7.3125 2.4375 7.3125 2.4375 6 5 C3.4375 5.875 3.4375 5.875 1 6 C0 5 0 5 -0.0625 2.4375 C-0.041875 1.633125 -0.02125 0.82875 0 0 Z " fill="#0E58A2" transform="translate(395,292)"/>
<path d="M0 0 C3.96 0 7.92 0 12 0 C12 0.66 12 1.32 12 2 C11.38125 2.2475 10.7625 2.495 10.125 2.75 C7.64931313 4.20628639 7.04874998 5.37812506 6 8 C5.67 8 5.34 8 5 8 C5 6.02 5 4.04 5 2 C3.35 2 1.7 2 0 2 C0 1.34 0 0.68 0 0 Z " fill="#0F59A2" transform="translate(408,261)"/>
<path d="M0 0 C1.2065625 0.0309375 1.2065625 0.0309375 2.4375 0.0625 C2.4375 1.7125 2.4375 3.3625 2.4375 5.0625 C0.7875 5.3925 -0.8625 5.7225 -2.5625 6.0625 C-2.94468767 4.40635343 -3.27645102 2.73792976 -3.5625 1.0625 C-2.5625 0.0625 -2.5625 0.0625 0 0 Z " fill="#1960A6" transform="translate(269.5625,246.9375)"/>
<path d="M0 0 C1.65 0.33 3.3 0.66 5 1 C4.67 2.65 4.34 4.3 4 6 C2.35 5.67 0.7 5.34 -1 5 C-0.67 3.35 -0.34 1.7 0 0 Z " fill="#155DA5" transform="translate(367,247)"/>
<path d="M0 0 C1.32 0 2.64 0 4 0 C5.19876651 5.44893869 4.91360308 8.22169095 2 13 C1.01 13 0.02 13 -1 13 C0.33333333 9 1.66666667 5 3 1 C2.01 0.67 1.02 0.34 0 0 Z " fill="#3F7AB5" transform="translate(409,263)"/>
<path d="M0 0 C0.94875 0.04125 1.8975 0.0825 2.875 0.125 C2.545 1.775 2.215 3.425 1.875 5.125 C-2.875 4.375 -2.875 4.375 -5.125 2.125 C-3.125 0.125 -3.125 0.125 0 0 Z " fill="#0C57A1" transform="translate(339.125,260.875)"/>
<path d="M0 0 C0.86625 0.37125 0.86625 0.37125 1.75 0.75 C1.09 1.41 0.43 2.07 -0.25 2.75 C-0.94748583 4.06747324 -1.61959957 5.39914193 -2.25 6.75 C-2.58 5.76 -2.91 4.77 -3.25 3.75 C-3.91 5.73 -4.57 7.71 -5.25 9.75 C-5.58 9.75 -5.91 9.75 -6.25 9.75 C-6.58102914 6.1086795 -6.67019439 4.33527075 -4.5 1.3125 C-2.25 -0.25 -2.25 -0.25 0 0 Z " fill="#2A6CAD" transform="translate(350.25,260.25)"/>
<path d="M0 0 C0.66 0 1.32 0 2 0 C1.25 5.75 1.25 5.75 -1 8 C-1.66 8 -2.32 8 -3 8 C-1.125 2.25 -1.125 2.25 0 0 Z " fill="#2669AB" transform="translate(293,266)"/>
<path d="M0 0 C4.16138263 -0.08159574 7.9472484 0.01751476 12 1 C11.67 1.99 11.34 2.98 11 4 C11 3.34 11 2.68 11 2 C9.68 2 8.36 2 7 2 C7 2.66 7 3.32 7 4 C6.34 4 5.68 4 5 4 C4.67 3.34 4.34 2.68 4 2 C1.98330173 0.86649466 1.98330173 0.86649466 0 0 Z " fill="#E5EDF4" transform="translate(94,231)"/>
<path d="M0 0 C0.33 0.99 0.66 1.98 1 3 C-5.0546875 3.1953125 -5.0546875 3.1953125 -7 3 C-7.66 2.34 -8.32 1.68 -9 1 C-5.8035914 -0.06546953 -3.34252724 -0.07427838 0 0 Z " fill="#447DB6" transform="translate(444,282)"/>
<path d="M0 0 C2 1 2 1 3 3 C0.33333333 4.33333333 -2.33333333 5.66666667 -5 7 C-3.70700306 4.11562221 -2.34058637 2.12780579 0 0 Z " fill="#2669AB" transform="translate(465,245)"/>
</svg>
