<svg width="160"
	height="39"
	viewBox="0 0 160 39"
	xmlns="http://www.w3.org/2000/svg"
	fill="#22bfea">
	<path fill-rule="evenodd"
		clip-rule="evenodd"
		d="M21.8636 18.3836L21.7093 18.374C21.5169 18.3631 21.3526 18.5194 21.3423 18.7231C21.3379 18.8112 21.3633 18.8977 21.4134 18.9671L21.4364 18.9958C21.6289 19.213 22.0541 19.4932 22.6026 19.8548C24.4429 21.0677 27.6714 23.1957 28.1583 26.9257C28.7139 31.1821 27.1004 33.6108 23.9946 34.8618C23.9254 34.8897 23.9213 34.8954 23.9176 34.9004C23.9139 34.9056 23.9106 34.9102 23.8357 34.9381C21.7514 35.7157 18.8729 35.2524 15.7232 34.7237L15.3857 34.6668C15.2507 34.644 15.1157 34.6211 14.9809 34.5982C13.2603 34.3061 11.5533 34.0163 10.0229 33.9152C6.8857 33.708 4.8142 33.8635 0.801444 34.8052L0.605751 34.8514C0.343499 34.9136 0.178519 35.1892 0.237258 35.467C0.287608 35.7052 0.488688 35.8733 0.719034 35.8698C4.46688 35.8133 7.62781 36.0119 10.2018 36.4658C11.3617 36.6704 12.44 36.8749 13.4491 37.0663C16.4223 37.6303 18.7945 38.0803 20.8832 38.0803C23.6806 38.0803 32.4801 36.9104 31.5645 28.1243C30.9678 22.3989 26.9336 18.7279 21.8636 18.3836ZM1.14248 22.388C0.308221 22.2933 -0.290436 23.2369 0.147334 24.0048L0.217909 24.1248L0.30862 24.2713L0.419175 24.4424L0.548801 24.6353L0.646352 24.7762C1.05746 25.3626 1.50917 25.9156 1.99416 26.4191C3.26023 27.7334 5.65727 29.0606 6.46786 28.8871C6.83587 28.8084 6.93132 28.441 6.77052 28.13C6.70844 28.01 6.60615 27.8801 6.45746 27.7233L6.31231 27.5752L6.11625 27.3859L5.80845 27.1087L4.74856 26.1807L4.50411 25.9627L4.28515 25.7633L4.09032 25.5808L3.91824 25.4137L3.76757 25.2604L3.63694 25.1193C3.57641 25.0516 3.52289 24.9879 3.4756 24.9273L3.42871 24.877L3.63251 24.9004C3.92332 24.9325 4.7634 24.9611 5.49638 24.986C6.00557 25.0033 6.46308 25.0188 6.64887 25.0326L7.12677 25.0644L7.12641 25.076L7.91052 25.0999C9.44623 25.1457 11.6279 24.2052 11.6279 23.3197C11.6279 22.9447 11.3852 22.721 11.0532 22.6765C10.8662 22.6515 10.6513 22.6764 10.3744 22.7386L9.81682 22.879L9.73518 22.8963C9.72458 22.8982 9.71546 22.8995 9.70777 22.9004L9.53939 22.918C9.40163 22.9307 9.24928 22.9408 9.08684 22.9478L8.88422 22.9549C8.78468 22.9575 8.67891 22.9591 8.56979 22.9596L8.2323 22.9576L7.87441 22.9489L7.62696 22.9394L7.37173 22.9268L7.10901 22.9113C6.89758 22.8979 6.49808 22.8817 6.03401 22.8629C5.82791 22.8546 5.60908 22.8457 5.38833 22.8364L5.17276 22.8271C4.49055 22.7972 3.82366 22.7624 3.49103 22.723L2.9197 22.6519L2.31234 22.569L1.92575 22.5122L1.56825 22.4569L1.14248 22.388ZM26.5274 7.82736C25.9311 7.34755 25.5614 6.83197 25.4595 6.5483C23.4158 0.86123 15.2255 -1.58524 10.5086 2.27296C5.15472 6.65223 6.88732 13.7025 8.53014 15.57C11.0449 18.4285 11.8893 17.7642 11.6 17.1984C11.569 17.1379 11.538 17.0772 11.5069 17.0165C9.58469 13.2613 7.56076 9.30727 12.2043 4.52558C17.7378 0.881614 23.2067 4.10736 25.3381 8.54918C25.3 9.11716 25.2133 9.55126 25.078 9.85148C24.8631 10.3284 24.5034 10.8475 23.9989 11.4089C23.6213 12.0124 23.5511 12.5624 23.7882 13.0588C24.0025 13.5075 24.5915 14.1383 25.3439 14.5496C26.0963 14.9609 27.0368 14.9609 27.5322 14.7739L27.5868 14.751C27.6766 14.7098 27.7593 14.6528 27.8314 14.5824C28.1873 14.2353 28.2102 13.6483 27.8825 13.2713L26.8487 12.0819C27.879 11.4961 28.7322 10.9726 29.4083 10.5115C29.8934 10.1807 30.3336 9.77294 30.7288 9.28818C31.0011 8.95421 31.0085 8.46161 30.7464 8.11862C30.502 7.79879 30.087 7.6895 29.7297 7.85085C29.2886 8.05004 28.8957 8.17668 28.5512 8.23079C28.1892 8.28764 27.5147 8.1532 26.5274 7.82736ZM21.956 8.17557C21.5391 7.22857 20.7869 6.66541 20.276 6.91777C19.7651 7.17014 19.6889 8.14237 20.1059 9.08937C20.5228 10.0364 21.275 10.5995 21.7858 10.3472C22.2967 10.0948 22.3729 9.12257 21.956 8.17557ZM160 15.6913C160 14.6057 159.216 13.5202 157.975 13.5202C157.093 13.5202 156.277 14.1155 155.983 14.9909L152.324 25.496L148.666 14.9909C148.34 14.0805 147.555 13.5202 146.739 13.5202C145.465 13.5202 144.649 14.6407 144.649 15.7263C144.649 15.9714 144.681 16.2165 144.779 16.4616L150.169 30.8885L149.581 32.3241C149.287 33.0245 148.699 33.3747 148.013 33.5148C147.85 33.5497 147.654 33.5497 147.491 33.5497C146.314 33.5497 145.531 34.4602 145.531 35.5107C145.531 36.7363 146.641 37.5066 148.078 37.5066C150.398 37.5066 152.39 36.3511 153.5 33.4097L159.869 16.4966C159.967 16.2515 160 15.9714 160 15.6913ZM135.381 22.0758C135.381 16.4381 132.402 13.2166 128.297 13.2166C126.344 13.2166 124.59 14.127 123.365 15.7728V15.5977C123.365 14.4072 122.438 13.4267 121.313 13.4267C120.088 13.4267 119.161 14.4072 119.161 15.5977V35.0319C119.161 36.2226 120.088 37.203 121.247 37.203C122.438 37.203 123.365 36.2226 123.365 35.0319V28.3788C124.656 30.1296 126.41 30.97 128.297 30.97C132.402 30.97 135.381 27.7135 135.381 22.0758ZM55.942 9.44925C54.7132 7.72181 50.8608 6.84045 48.3368 6.84045C43.1229 6.84045 39.9347 10.0838 39.9347 13.997C39.9347 19.2465 44.4228 20.3768 48.0739 21.2963C50.5774 21.9267 52.6873 22.4581 52.6873 24.1502C52.6873 25.4899 51.4254 26.759 48.835 26.759C46.6764 26.759 44.7834 26.0187 43.2889 24.9258C42.9236 24.6437 42.4587 24.5381 42.027 24.5381C40.8978 24.5381 39.8019 25.5252 39.8019 26.8648C39.8019 27.2879 39.9347 27.7109 40.1672 28.0634C41.396 30.0024 45.3812 31.1305 48.6025 31.1305C54.5803 31.1305 57.4695 27.8872 57.4695 23.5861C57.4695 18.2739 52.8115 17.093 49.1331 16.1605C46.7331 15.5521 44.7502 15.0495 44.7502 13.574C44.7502 12.1638 45.8793 11.212 47.9051 11.212C49.5324 11.212 51.2593 11.635 52.787 12.5516C53.1855 12.7984 53.5841 12.9042 53.9825 12.9042C55.1116 12.9042 56.3404 11.9875 56.3404 10.6479C56.3404 10.2248 56.2076 9.8018 55.942 9.44925ZM82.6676 15.6529C82.6676 14.5341 81.8023 13.5202 80.5708 13.5202C79.6389 13.5202 78.7736 14.1495 78.5406 15.0935L75.9113 25.093L72.8827 15.3033C72.5498 14.2544 71.5846 13.5202 70.5529 13.5202C69.4213 13.5202 68.4561 14.2544 68.1233 15.3033L65.0946 25.093L62.4654 15.0935C62.2323 14.1495 61.3671 13.5202 60.4684 13.5202C59.2037 13.5202 58.3384 14.5691 58.3384 15.6529C58.3384 15.8627 58.3717 16.0725 58.4382 16.2823L62.0327 28.6592C62.3988 29.9178 63.5636 30.8269 64.8284 30.8269H64.895C66.1597 30.8269 67.3245 29.9178 67.6906 28.6592L70.5196 19.1143L73.3486 28.6592C73.7147 29.9528 74.8463 30.8269 76.1443 30.8269H76.2109C77.4423 30.8269 78.6072 29.9178 78.9733 28.6592L82.5677 16.2823C82.6343 16.0725 82.6676 15.8627 82.6676 15.6529ZM115.975 18.3485C115.975 14.8687 114.223 13.2166 111.28 13.2166C108.833 13.2166 106.717 14.7632 105.791 16.3098C105.196 14.3766 103.708 13.2166 101.36 13.2166C98.9129 13.2166 96.7967 14.8335 96.1353 15.8529V15.6068C96.1353 14.4117 95.2095 13.4275 94.0852 13.4275C92.8617 13.4275 91.9359 14.4117 91.9359 15.6068V28.6124C91.9359 29.8427 92.8617 30.8269 94.019 30.8269C95.2095 30.8269 96.1353 29.8427 96.1353 28.6124V19.1921C96.7636 18.2431 97.9871 17.1885 99.442 17.1885C101.162 17.1885 101.823 18.3134 101.823 19.8952V28.6124C101.823 29.8427 102.749 30.8269 103.906 30.8269C105.13 30.8269 106.055 29.8427 106.055 28.6124V19.1569C106.651 18.2431 107.874 17.1885 109.362 17.1885C111.082 17.1885 111.743 18.3134 111.743 19.8952V28.6124C111.743 29.8427 112.669 30.8269 113.826 30.8269C115.05 30.8269 115.975 29.8427 115.975 28.6124V18.3485ZM88.9175 15.3244C88.9175 14.131 87.9572 13.1481 86.791 13.1481C85.5221 13.1481 84.5617 14.131 84.5617 15.3244V28.3119C84.5617 29.5404 85.5221 30.5233 86.7224 30.5233C87.9572 30.5233 88.9175 29.5404 88.9175 28.3119V15.3244ZM142.332 9.00294C142.332 7.81706 141.374 6.84045 140.212 6.84045C138.946 6.84045 137.988 7.81706 137.988 9.00294V28.3259C137.988 29.5467 138.946 30.5233 140.143 30.5233C141.374 30.5233 142.332 29.5467 142.332 28.3259V9.00294ZM123.365 19.0994C124.06 18.0139 125.616 17.1734 126.973 17.1734C129.39 17.1734 131.011 19.1694 131.011 22.0758C131.011 25.0172 129.39 27.0131 126.973 27.0131C125.616 27.0131 124.06 26.1377 123.365 25.0873V19.0994ZM89.3292 8.86579C89.3292 7.39154 88.163 6.2332 86.7224 6.2332C85.3162 6.2332 84.1158 7.39154 84.1158 8.86579C84.1158 10.34 85.3162 11.5335 86.7224 11.5335C88.163 11.5335 89.3292 10.34 89.3292 8.86579Z" />
</svg>
