<?xml version="1.0" encoding="UTF-8"?>
<svg enable-background="new 0 0 500 500" version="1.1" viewBox="0 0 500 500" xml:space="preserve" xmlns="http://www.w3.org/2000/svg">

	
		<path d="m471.01 238.3c-4.936 41.801-24.022 90.403-62.141 112.73-57.595 33.742-52.774 85.638-165.19 108.2-17.527 3.519-34.161 5-49.846 4.708-8.432-0.156-16.593-0.836-24.465-1.995-71.448-10.436-119.53-60.1-137.17-120.05-23.214-78.845 23.139-130.46 53.862-161.56 30.724-31.1 53.226-128 163.57-151.05 16.824-3.507 34.029-5.296 51.229-4.867 39.259 0.963 82.08 13.855 111.71 40.761 2.225 2.022 4.388 4.118 6.497 6.278 41.183 42.271 58.683 109.86 51.95 166.85z" fill="white"/>
		<path d="m471.01 238.3c-4.936 41.801-24.022 90.403-62.141 112.73-57.595 33.742-52.774 85.638-165.19 108.2-17.527 3.519-34.161 5-49.846 4.708-8.432-0.156-16.593-0.836-24.465-1.995-71.448-10.436-119.53-60.1-137.17-120.05-23.214-78.845 23.139-130.46 53.862-161.56 30.724-31.1 53.226-128 163.57-151.05 16.824-3.507 34.029-5.296 51.229-4.867 39.259 0.963 82.08 13.855 111.71 40.761 2.225 2.022 4.388 4.118 6.497 6.278 41.183 42.271 58.683 109.86 51.95 166.85z" fill="#fff" opacity=".7"/>
	


	<g fill="none" stroke="#263238" stroke-linecap="round" stroke-linejoin="round" stroke-miterlimit="10">
		
			<line x1="463.78" x2="478.97" y1="282.93" y2="282.93"/>
		
			<line x1="22.598" x2="456.98" y1="282.93" y2="282.93"/>
	</g>


	<g fill="none" stroke="#263238" stroke-miterlimit="10">
		
			<path d="m440.46 165.84v-7.828l-7.497-1.072c-0.696-3.835-2.188-7.392-4.306-10.489l4.559-6.081-5.535-5.535-6.059 4.543c-3.086-2.137-6.632-3.651-10.461-4.37l-1.076-7.526h-7.828l-1.072 7.497c-3.835 0.696-7.392 2.188-10.489 4.306l-6.081-4.559-5.535 5.535 4.543 6.059c-2.137 3.086-3.651 6.632-4.37 10.462l-7.526 1.076v7.828l7.497 1.072c0.696 3.835 2.188 7.392 4.306 10.489l-4.559 6.081 5.535 5.535 6.059-4.543c3.086 2.137 6.633 3.651 10.461 4.37l1.076 7.525h7.828l1.072-7.497c3.835-0.696 7.392-2.188 10.489-4.305l6.081 4.559 5.535-5.535-4.543-6.059c2.137-3.086 3.651-6.633 4.37-10.462l7.526-1.076zm-34.367 14.987c-10.482 0-18.978-8.497-18.978-18.978s8.497-18.978 18.978-18.978 18.978 8.497 18.978 18.978-8.497 18.978-18.978 18.978z"/>
			<path d="m462.16 212.54v-5.598l-5.362-0.767c-0.498-2.742-1.564-5.286-3.079-7.501l3.26-4.348-3.958-3.958-4.333 3.249c-2.207-1.528-4.743-2.611-7.481-3.125l-0.77-5.382h-5.598l-0.767 5.361c-2.742 0.498-5.286 1.564-7.501 3.079l-4.348-3.26-3.958 3.958 3.249 4.333c-1.528 2.207-2.611 4.743-3.125 7.481l-5.382 0.77v5.598l5.362 0.767c0.498 2.742 1.564 5.286 3.079 7.501l-3.26 4.348 3.958 3.958 4.333-3.249c2.207 1.528 4.743 2.611 7.481 3.125l0.77 5.382h5.598l0.767-5.361c2.742-0.498 5.286-1.564 7.501-3.079l4.348 3.26 3.958-3.958-3.249-4.333c1.528-2.207 2.611-4.743 3.125-7.481l5.382-0.77zm-24.577 10.718c-7.496 0-13.572-6.076-13.572-13.572s6.076-13.572 13.572-13.572 13.572 6.076 13.572 13.572-6.076 13.572-13.572 13.572z"/>
		
		
			<path d="m66.517 208.69v7.143l6.841 0.979c0.635 3.499 1.996 6.745 3.929 9.571l-4.16 5.549 5.051 5.051 5.529-4.145c2.816 1.95 6.052 3.332 9.546 3.988l0.982 6.867h7.143l0.979-6.841c3.499-0.635 6.745-1.996 9.571-3.929l5.549 4.16 5.051-5.051-4.145-5.529c1.95-2.816 3.332-6.052 3.988-9.546l6.867-0.982v-7.143l-6.841-0.979c-0.635-3.499-1.996-6.745-3.929-9.571l4.16-5.549-5.051-5.051-5.529 4.145c-2.816-1.95-6.052-3.332-9.546-3.988l-0.982-6.867h-7.143l-0.978 6.841c-3.499 0.635-6.745 1.996-9.571 3.929l-5.549-4.16-5.051 5.051 4.145 5.529c-1.95 2.816-3.332 6.052-3.988 9.546l-6.868 0.982zm31.361-13.676c9.564 0 17.318 7.753 17.318 17.318 0 9.564-7.753 17.318-17.318 17.318s-17.318-7.753-17.318-17.318 7.753-17.318 17.318-17.318z"/>
			<path d="m48.846 169.81v4.357l4.173 0.597c0.388 2.134 1.218 4.114 2.397 5.838l-2.538 3.385 3.081 3.081 3.373-2.529c1.718 1.189 3.692 2.033 5.823 2.432l0.599 4.189h4.357l0.597-4.173c2.134-0.388 4.114-1.218 5.838-2.397l3.385 2.538 3.081-3.081-2.529-3.373c1.189-1.718 2.032-3.692 2.432-5.823l4.189-0.599v-4.357l-4.173-0.597c-0.388-2.135-1.218-4.114-2.396-5.838l2.538-3.385-3.081-3.081-3.373 2.529c-1.718-1.189-3.692-2.033-5.823-2.432l-0.599-4.189h-4.357l-0.597 4.173c-2.135 0.387-4.114 1.218-5.838 2.396l-3.385-2.538-3.081 3.081 2.529 3.373c-1.189 1.718-2.032 3.692-2.432 5.823l-4.19 0.6zm19.13-8.342c5.834 0 10.564 4.729 10.564 10.564 0 5.834-4.729 10.563-10.564 10.563-5.834 0-10.564-4.729-10.564-10.563 0-5.835 4.73-10.564 10.564-10.564z"/>
			<path d="m216.7 90.298v5.984l5.731 0.82c0.532 2.931 1.672 5.65 3.291 8.018l-3.485 4.648 4.231 4.231 4.632-3.472c2.359 1.633 5.07 2.791 7.997 3.34l0.823 5.752h5.984l0.82-5.731c2.931-0.532 5.65-1.672 8.018-3.291l4.648 3.485 4.231-4.231-3.473-4.632c1.633-2.359 2.791-5.07 3.34-7.997l5.752-0.823v-5.984l-5.731-0.82c-0.532-2.931-1.672-5.65-3.291-8.018l3.485-4.648-4.231-4.231-4.632 3.472c-2.359-1.633-5.07-2.791-7.997-3.34l-0.823-5.752h-5.984l-0.82 5.731c-2.931 0.532-5.65 1.672-8.018 3.291l-4.648-3.485-4.231 4.231 3.473 4.632c-1.633 2.359-2.791 5.07-3.34 7.996l-5.752 0.824zm26.27-11.456c8.012 0 14.507 6.495 14.507 14.507s-6.495 14.507-14.507 14.507-14.507-6.495-14.507-14.507 6.495-14.507 14.507-14.507z"/>
		
	</g>


	
		<g stroke-linecap="round" stroke-linejoin="round" stroke-miterlimit="10">
			<path d="m397.98 289.41h-291.04v-191.45c0-4.402 3.569-7.971 7.971-7.971h275.1c4.402 0 7.971 3.569 7.971 7.971v191.45z" fill="#263238" stroke="#263238"/>
			
				<polygon points="441.63 377.57 63.279 377.57 106.94 289.41 397.98 289.41" fill="#fff" stroke="#263238"/>
			
				<rect x="124.56" y="105.79" width="255.78" height="167.84" fill="white" stroke="#263238"/>
			<g fill="#263238" stroke="#fff">
				
					<polygon points="240.32 317.32 240.82 306.58 225.44 306.58 224.42 317.32"/>
				
					<polygon points="272.1 317.32 271.58 306.58 256.2 306.58 256.21 317.32"/>
				
					<polygon points="354.87 328.8 371.31 328.8 367.45 317.32 351.56 317.32"/>
				
					<polygon points="224.42 317.32 225.44 306.58 210.06 306.58 208.53 317.32"/>
				
					<polygon points="192.64 317.32 194.69 306.58 179.31 306.58 176.75 317.32"/>
				
					<polygon points="335.67 317.32 333.09 306.58 317.71 306.58 319.78 317.32"/>
				
					<polygon points="351.56 317.32 348.46 306.58 333.09 306.58 335.67 317.32"/>
				
					<polygon points="176.75 317.32 179.31 306.58 163.93 306.58 160.85 317.32"/>
				
					<polygon points="287.99 317.32 286.95 306.58 271.58 306.58 272.1 317.32"/>
				
					<polygon points="367.45 317.32 363.84 306.58 348.46 306.58 351.56 317.32"/>
				
					<polygon points="319.78 317.32 317.71 306.58 302.33 306.58 303.88 317.32"/>
				
					<polygon points="303.88 317.32 302.33 306.58 286.95 306.58 287.99 317.32"/>
				
					<polygon points="256.21 317.32 256.2 306.58 240.82 306.58 240.32 317.32"/>
				
					<polygon points="144.96 317.32 129.07 317.32 124.68 328.8 141.12 328.8"/>
				
					<polygon points="148.55 306.58 133.17 306.58 129.07 317.32 144.96 317.32"/>
				
					<polygon points="160.85 317.32 163.93 306.58 148.55 306.58 144.96 317.32"/>
				
					<polygon points="119.98 341.11 114.93 354.34 132.59 354.34 137.01 341.11"/>
				
					<polygon points="141.12 328.8 124.68 328.8 119.98 341.11 137.01 341.11"/>
				
					<polygon points="137.01 341.11 132.59 354.34 150.26 354.34 154.04 341.11"/>
				
					<polygon points="208.53 317.32 210.06 306.58 194.69 306.58 192.64 317.32"/>
				
					<polygon points="206.89 328.8 208.53 317.32 192.64 317.32 190.45 328.8"/>
				
					<polygon points="190.45 328.8 192.64 317.32 176.75 317.32 174.01 328.8"/>
				
					<polygon points="223.33 328.8 224.42 317.32 208.53 317.32 206.89 328.8"/>
				
					<polygon points="160.85 317.32 144.96 317.32 141.12 328.8 157.57 328.8"/>
				
					<polygon points="358.42 341.11 375.45 341.11 371.31 328.8 354.87 328.8"/>
				
					<polygon points="174.01 328.8 176.75 317.32 160.85 317.32 157.57 328.8"/>
				
					<polygon points="141.12 328.8 137.01 341.11 154.04 341.11 157.57 328.8"/>
				
					<polygon points="321.99 328.8 319.78 317.32 303.88 317.32 305.54 328.8"/>
				
					<polygon points="305.54 328.8 303.88 317.32 287.99 317.32 289.1 328.8"/>
				
					<polygon points="354.87 328.8 351.56 317.32 335.67 317.32 338.43 328.8"/>
				
					<polygon points="256.22 328.8 256.21 317.32 240.32 317.32 239.78 328.8"/>
				
					<polygon points="289.1 328.8 287.99 317.32 272.1 317.32 272.66 328.8"/>
				
					<polygon points="272.66 328.8 272.1 317.32 256.21 317.32 256.22 328.8"/>
				
					<polygon points="239.78 328.8 240.32 317.32 224.42 317.32 223.33 328.8"/>
				
					<polygon points="289.1 328.8 290.29 341.11 307.32 341.11 305.54 328.8"/>
				
					<polygon points="305.54 328.8 307.32 341.11 324.36 341.11 321.99 328.8"/>
				
					<polygon points="157.57 328.8 154.04 341.11 171.07 341.11 174.01 328.8"/>
				
					<polygon points="321.99 328.8 324.36 341.11 341.39 341.11 338.43 328.8"/>
				
					<polygon points="256.22 328.8 256.23 341.11 273.26 341.11 272.66 328.8"/>
				
					<polygon points="338.43 328.8 341.39 341.11 358.42 341.11 354.87 328.8"/>
				
					<polygon points="272.66 328.8 273.26 341.11 290.29 341.11 289.1 328.8"/>
				
					<polygon points="190.45 328.8 188.1 341.11 205.14 341.11 206.89 328.8"/>
				
					<polygon points="174.01 328.8 171.07 341.11 188.1 341.11 190.45 328.8"/>
				
					<polygon points="239.78 328.8 239.2 341.11 256.23 341.11 256.22 328.8"/>
				
					<polygon points="223.33 328.8 222.17 341.11 239.2 341.11 239.78 328.8"/>
				
					<polygon points="206.89 328.8 205.14 341.11 222.17 341.11 223.33 328.8"/>
				
					<polygon points="338.43 328.8 335.67 317.32 319.78 317.32 321.99 328.8"/>
				
					<polygon points="148.55 306.58 152.23 295.58 137.38 295.58 133.17 306.58"/>
				
					<polygon points="133.17 306.58 118.98 306.58 114.4 317.32 129.07 317.32"/>
				
					<polygon points="137.38 295.58 123.66 295.58 118.98 306.58 133.17 306.58"/>
				
					<polygon points="129.07 317.32 114.4 317.32 109.5 328.8 124.68 328.8"/>
				
					<polygon points="124.68 328.8 109.5 328.8 104.26 341.11 119.98 341.11"/>
				
					<polygon points="119.98 341.11 104.26 341.11 98.621 354.34 114.93 354.34"/>
				
					<polygon points="383.34 317.32 387.76 328.8 402.3 328.8 397.4 317.32"/>
				
					<polygon points="392.48 341.11 407.55 341.11 402.3 328.8 387.76 328.8"/>
				
					<polygon points="397.56 354.34 413.18 354.34 407.55 341.11 392.48 341.11"/>
				
					<polygon points="271.58 306.58 271.04 295.58 256.19 295.58 256.2 306.58"/>
				
					<polygon points="383.34 317.32 397.4 317.32 392.82 306.58 379.22 306.58"/>
				
					<polygon points="375.45 341.11 392.48 341.11 387.76 328.8 371.31 328.8"/>
				
					<polygon points="163.93 306.58 167.08 295.58 152.23 295.58 148.55 306.58"/>
				
					<polygon points="363.84 306.58 367.45 317.32 383.34 317.32 379.22 306.58"/>
				
					<polygon points="392.82 306.58 388.14 295.58 375 295.58 379.22 306.58"/>
				
					<polygon points="379.22 306.58 375 295.58 360.15 295.58 363.84 306.58"/>
				
					<polygon points="324.36 341.11 326.9 354.34 344.56 354.34 341.39 341.11"/>
				
					<polygon points="379.89 354.34 397.56 354.34 392.48 341.11 375.45 341.11"/>
				
					<polygon points="363.84 306.58 360.15 295.58 345.3 295.58 348.46 306.58"/>
				
					<polygon points="358.42 341.11 362.23 354.34 379.89 354.34 375.45 341.11"/>
				
					<polygon points="341.39 341.11 344.56 354.34 362.23 354.34 358.42 341.11"/>
				
					<polygon points="371.31 328.8 387.76 328.8 383.34 317.32 367.45 317.32"/>
				
					<polygon points="225.44 306.58 226.48 295.58 211.63 295.58 210.06 306.58"/>
				
					<polygon points="348.46 306.58 345.3 295.58 330.45 295.58 333.09 306.58"/>
				
					<polygon points="210.06 306.58 211.63 295.58 196.78 295.58 194.69 306.58"/>
				
					<polygon points="256.2 306.58 256.19 295.58 241.34 295.58 240.82 306.58"/>
				
					<polygon points="194.69 306.58 196.78 295.58 181.93 295.58 179.31 306.58"/>
				
					<polygon points="179.31 306.58 181.93 295.58 167.08 295.58 163.93 306.58"/>
				
					<polygon points="240.82 306.58 241.34 295.58 226.48 295.58 225.44 306.58"/>
				
					<polygon points="333.09 306.58 330.45 295.58 315.59 295.58 317.71 306.58"/>
				
					<polygon points="317.71 306.58 315.59 295.58 300.74 295.58 302.33 306.58"/>
				
					<polygon points="286.95 306.58 285.89 295.58 271.04 295.58 271.58 306.58"/>
				
					<polygon points="324.36 341.11 307.32 341.11 290.29 341.11 273.26 341.11 256.23 341.11 239.2 341.11 222.17 341.11 205.14 341.11 188.1 341.11 171.07 341.11 154.04 341.11 150.26 354.34 167.92 354.34 185.58 354.34 203.25 354.34 220.91 354.34 238.58 354.34 256.24 354.34 273.91 354.34 291.57 354.34 309.23 354.34 326.9 354.34"/>
				
					<polygon points="302.33 306.58 300.74 295.58 285.89 295.58 286.95 306.58"/>
			</g>
			
				<rect x="63.279" y="377.57" width="378.52" height="5.371" fill="#263238" stroke="#263238"/>
		</g>
	


	
		<g fill="none" stroke-linecap="round" stroke-linejoin="round" stroke-miterlimit="10" stroke-width="3">
			
				<line x1="141.06" x2="157.54" y1="119.02" y2="119.02" stroke="#263238"/>
			
				<line x1="141.06" x2="203" y1="127.49" y2="127.49" stroke="#fff"/>
			
				<line x1="236.88" x2="298.83" y1="127.49" y2="127.49" stroke="#fff"/>
			
				<line x1="207.02" x2="231.53" y1="127.49" y2="127.49" stroke="#263238"/>
			
				<line x1="141.06" x2="176.71" y1="135.96" y2="135.96" stroke="#263238"/>
			
				<line x1="181.17" x2="216.82" y1="135.96" y2="135.96" stroke="#263238"/>
			
				<line x1="221.28" x2="256.93" y1="135.96" y2="135.96" stroke="#263238"/>
			
				<line x1="261.39" x2="276.54" y1="135.96" y2="135.96" stroke="#263238"/>
			
				<line x1="162" x2="178.49" y1="119.02" y2="119.02" stroke="#263238"/>
			
				
					<line x1="260.05" x2="276.54" y1="119.02" y2="119.02" stroke="#263238"/>
				
					<line x1="238.21" x2="254.7" y1="119.02" y2="119.02" stroke="#fff"/>
				
					<line x1="182.95" x2="231.08" y1="119.02" y2="119.02" stroke="#263238"/>
			
		</g>
		<g fill="none" stroke-linecap="round" stroke-linejoin="round" stroke-miterlimit="10" stroke-width="3">
			
				<line x1="141.06" x2="157.54" y1="170.72" y2="170.72" stroke="#263238"/>
			
				<line x1="141.06" x2="203" y1="179.19" y2="179.19" stroke="#fff"/>
			
				<line x1="236.88" x2="298.83" y1="179.19" y2="179.19" stroke="#263238"/>
			
				<line x1="207.02" x2="231.53" y1="179.19" y2="179.19" stroke="#263238"/>
			
				<line x1="141.06" x2="176.71" y1="187.66" y2="187.66" stroke="#263238"/>
			
				<line x1="181.17" x2="216.82" y1="187.66" y2="187.66" stroke="#263238"/>
			
				<line x1="221.28" x2="256.93" y1="187.66" y2="187.66" stroke="#fff"/>
			
				<line x1="261.39" x2="276.54" y1="187.66" y2="187.66" stroke="#263238"/>
			
				<line x1="162" x2="178.49" y1="170.72" y2="170.72" stroke="#263238"/>
			
				
					<line x1="260.05" x2="276.54" y1="170.72" y2="170.72" stroke="#263238"/>
				
					<line x1="238.21" x2="254.7" y1="170.72" y2="170.72" stroke="#fff"/>
				
					<line x1="182.95" x2="231.08" y1="170.72" y2="170.72" stroke="#263238"/>
			
		</g>
		<g fill="none" stroke-linecap="round" stroke-linejoin="round" stroke-miterlimit="10" stroke-width="3">
			
				<line x1="141.06" x2="157.54" y1="246.93" y2="246.93" stroke="#263238"/>
			
				<line x1="141.06" x2="203" y1="255.4" y2="255.4" stroke="#fff"/>
			
				<line x1="236.88" x2="298.83" y1="255.4" y2="255.4" stroke="#263238"/>
			
				<line x1="207.02" x2="231.53" y1="255.4" y2="255.4" stroke="#263238"/>
			
				<line x1="141.06" x2="176.71" y1="263.87" y2="263.87" stroke="#263238"/>
			
				<line x1="181.17" x2="216.82" y1="263.87" y2="263.87" stroke="#263238"/>
			
				<line x1="221.28" x2="256.93" y1="263.87" y2="263.87" stroke="#fff"/>
			
				<line x1="261.39" x2="276.54" y1="263.87" y2="263.87" stroke="#263238"/>
			
				<line x1="162" x2="178.49" y1="246.93" y2="246.93" stroke="#263238"/>
			
				
					<line x1="260.05" x2="276.54" y1="246.93" y2="246.93" stroke="#263238"/>
				
					<line x1="238.21" x2="254.7" y1="246.93" y2="246.93" stroke="#fff"/>
				
					<line x1="182.95" x2="231.08" y1="246.93" y2="246.93" stroke="#263238"/>
			
		</g>
		<g fill="none" stroke-linecap="round" stroke-linejoin="round" stroke-miterlimit="10" stroke-width="3">
			<g stroke="#263238">
				
					<line x1="233.76" x2="250.25" y1="144.87" y2="144.87"/>
				
					<line x1="211.92" x2="228.41" y1="144.87" y2="144.87"/>
				
					<line x1="156.65" x2="204.79" y1="144.87" y2="144.87"/>
			</g>
			
				
					<line x1="233.76" x2="250.25" y1="160.02" y2="160.02" stroke="#263238"/>
				
					<line x1="211.92" x2="228.41" y1="160.02" y2="160.02" stroke="#263238"/>
				
					<line x1="156.65" x2="204.79" y1="160.02" y2="160.02" stroke="#fff"/>
			
			
				
					<line x1="173.14" x2="156.65" y1="152.45" y2="152.45" stroke="#263238"/>
				
					<line x1="194.98" x2="178.49" y1="152.45" y2="152.45" stroke="#263238"/>
				
					<line x1="250.25" x2="202.11" y1="152.45" y2="152.45" stroke="#fff"/>
			
		</g>
		<g fill="none" stroke-linecap="round" stroke-linejoin="round" stroke-miterlimit="10" stroke-width="3">
			<g stroke="#263238">
				
					<line x1="233.76" x2="250.25" y1="197.91" y2="197.91"/>
				
					<line x1="211.92" x2="228.41" y1="197.91" y2="197.91"/>
				
					<line x1="156.65" x2="204.79" y1="197.91" y2="197.91"/>
			</g>
			
				
					<line x1="233.76" x2="250.25" y1="213.06" y2="213.06" stroke="#263238"/>
				
					<line x1="211.92" x2="228.41" y1="213.06" y2="213.06" stroke="#263238"/>
				
					<line x1="156.65" x2="204.79" y1="213.06" y2="213.06" stroke="#fff"/>
			
			
				
					<line x1="173.14" x2="156.65" y1="205.48" y2="205.48" stroke="#263238"/>
				
					<line x1="194.98" x2="178.49" y1="205.48" y2="205.48" stroke="#263238"/>
				
					<line x1="250.25" x2="202.11" y1="205.48" y2="205.48" stroke="#fff"/>
			
		</g>
		<g fill="none" stroke-linecap="round" stroke-linejoin="round" stroke-miterlimit="10" stroke-width="3">
			
				
					<line x1="173.14" x2="156.65" y1="221.98" y2="221.98" stroke="#263238"/>
				
					<line x1="194.98" x2="178.49" y1="221.98" y2="221.98" stroke="#263238"/>
				
					<line x1="250.25" x2="202.11" y1="221.98" y2="221.98" stroke="#fff"/>
			
			
				
					<line x1="173.14" x2="156.65" y1="237.13" y2="237.13" stroke="#263238"/>
				
					<line x1="194.98" x2="178.49" y1="237.13" y2="237.13" stroke="#263238"/>
				
					<line x1="250.25" x2="202.11" y1="237.13" y2="237.13" stroke="#fff"/>
			
			
				
					<line x1="233.76" x2="250.25" y1="229.55" y2="229.55" stroke="#263238"/>
				
					<line x1="211.92" x2="228.41" y1="229.55" y2="229.55" stroke="#263238"/>
				
					<line x1="156.65" x2="204.79" y1="229.55" y2="229.55" stroke="#fff"/>
			
		</g>
		<g fill="#263238">
			<rect x="129.67" y="116.08" width="5.265" height="5.2"/>
			<rect x="129.67" y="124.62" width="5.265" height="5.2"/>
			<rect x="129.67" y="133.17" width="5.265" height="5.2"/>
			<rect x="129.67" y="141.71" width="5.265" height="5.2"/>
			<rect x="129.67" y="150.25" width="5.265" height="5.2"/>
			<rect x="129.67" y="158.8" width="5.265" height="5.2"/>
			<rect x="129.67" y="167.34" width="5.265" height="5.2"/>
			<rect x="129.67" y="175.88" width="5.265" height="5.2"/>
			<rect x="129.67" y="184.43" width="5.265" height="5.2"/>
			<rect x="129.67" y="192.97" width="5.265" height="5.2"/>
			<rect x="129.67" y="201.51" width="5.265" height="5.2"/>
			<rect x="129.67" y="210.06" width="5.265" height="5.2"/>
			<rect x="129.67" y="218.6" width="5.265" height="5.2"/>
			<rect x="129.67" y="227.14" width="5.265" height="5.2"/>
			<rect x="129.67" y="235.69" width="5.265" height="5.2"/>
			<rect x="129.67" y="244.23" width="5.265" height="5.2"/>
			<rect x="129.67" y="252.77" width="5.265" height="5.2"/>
			<rect x="129.67" y="261.32" width="5.265" height="5.2"/>
		</g>
	


	<g stroke="#263238" stroke-linecap="round" stroke-linejoin="round" stroke-miterlimit="10">
		<path d="m380.04 22.661c-31.587 0-57.193 25.606-57.193 57.193 0 16.251 6.789 30.906 17.672 41.319l-8.139 15.193 19.961-6.474c8.208 4.553 17.648 7.155 27.7 7.155 31.587 0 57.193-25.606 57.193-57.193-1e-3 -31.586-25.607-57.193-57.194-57.193z" fill="#263238"/>
		<path d="m377.32 18.576c-31.587 0-57.193 25.606-57.193 57.193 0 16.251 6.789 30.907 17.671 41.319l-8.139 15.193 19.961-6.474c8.208 4.553 17.648 7.155 27.7 7.155 31.587 0 57.193-25.606 57.193-57.193s-25.606-57.193-57.193-57.193z" fill="#fff"/>
	</g>


	<g fill="white">
		<path d="m358.16 99.339-21.977-15.522v-8.223l21.977-15.676v8.299l-15.753 11.45 15.753 11.45v8.222z"/>
		<path d="m364.85 102.11 16.752-62.244h7.147l-16.829 62.243h-7.07z"/>
		<path d="m395.43 99.339v-8.222l15.83-11.527-15.83-11.373v-8.299l22.055 15.599v8.222l-22.055 15.6z"/>
	</g>
	<g fill="#263238">
		<path d="m360.89 95.935-21.977-15.523v-8.222l21.977-15.676v8.299l-15.753 11.45 15.753 11.45v8.222z"/>
		<path d="m367.57 98.701 16.752-62.243h7.147l-16.829 62.243h-7.07z"/>
		<path d="m398.16 95.935v-8.222l15.83-11.527-15.83-11.373v-8.299l22.055 15.599v8.222l-22.055 15.6z"/>
	</g>


	<g stroke="#263238" stroke-linecap="round" stroke-linejoin="round" stroke-miterlimit="10">
		<path d="m333.83 383.53 34.63 28.588s2.043 5.447 6.809 11.575 60.597 29.277 60.597 29.277l9.532 2.723-104.17-78.3-7.395 6.137z" fill="#263238"/>
		
			<path d="m401.28 360.82s-9.29-11.355-13.419-18.581-9.979-24.086-14.452-34.065-11.011-13.076-18.925-16.172c-7.914-3.097-11.011-2.409-11.011-0.344s3.097 5.85 3.097 5.85l-13.42 2.409s-5.505-3.097-8.946-2.065-9.979 7.57-9.979 7.57-6.882-2.409-11.011-1.376c-4.129 1.032-15.484 6.538-20.301 8.946-4.817 2.409-9.979 2.753-9.634 4.817 0.344 2.065 5.161 5.505 9.634 4.817s12.043-3.441 16.861-3.441 7.226 1.032 9.634 2.753c2.409 1.721 12.387 15.828 13.764 17.549 1.376 1.72 2.753 8.602 2.753 8.602s-6.067-2.593-9.852-6.034-9.2-11.511-15.394-12.199-12.949 4.813-9.508 7.566 6.882 4.473 9.29 7.57c2.409 3.097 6.194 12.387 12.731 22.366 6.538 9.979 20.645 16.172 20.645 16.172l29.248 12.043s7.57-17.893 21.678-22.71 18.237-6.882 18.237-6.882l-1.72-5.161z" fill="#fff"/>
			<path d="m273.27 317.81s3.355-0.854 4.321-1.176 2.094-1.288 2.094-1.288" fill="none"/>
			<path d="m314.22 305.42s15.85 8.865 20.323 11.274c1.839 0.99 6.196 3.028 7.54 7.54 1.588 5.332 4.798 8.225 4.798 8.225" fill="none"/>
			<path d="m333.15 299.92s15.484 12.043 16.516 12.387 4.817 0.688 6.538 3.785c1.72 3.097 3.441 6.538 3.441 6.538" fill="none"/>
			<path d="m346.56 297.51s5.505-1.032 7.57 3.097 11.011 14.108 11.011 14.108" fill="none"/>
			<path d="m297.36 341.9s4.129-2.064 2.064-5.161c-2.064-3.097-6.194-3.097-6.194-3.097" fill="none"/>
			<path d="m400.59 356.35s-18.581 4.817-30.28 17.893-11.699 24.086-10.667 25.807 23.398 13.764 23.398 13.764 13.764-26.495 23.398-33.033 16.516-8.258 16.516-8.258-17.205-11.011-17.893-12.387c-0.687-1.377-2.063-4.818-4.472-3.786z" fill="white"/>
			<path d="m452.89 459.92s-18.925-9.635-23.398-12.043c-4.473-2.409-35.097-18.925-35.097-18.925s-3.785-1.032-5.85-2.065c-2.064-1.032-5.161-0.688-6.538-7.914-1.376-7.226 2.065-21.678 17.549-36.13s25.119-13.764 25.119-13.764 6.538-0.688 8.258 0.688 2.065 5.506 3.785 6.194 49.332 14.959 49.332 14.959" fill="white"/>
			<path d="m398.87 406.93s-2.065 10.323 2.753 18.925" fill="none"/>
			<path d="m403.68 420.35s-2.065 0.688 3.441 9.635" fill="none"/>
		
	</g>


	<g stroke="#263238" stroke-linecap="round" stroke-linejoin="round" stroke-miterlimit="10">
		<path d="m191.65 353.16s-22.678 26.954-29.486 32.401c-6.809 5.447-12.936 8.851-12.936 8.851l-24.511 24.511s0.681 3.404-6.128 7.49c-6.809 4.085-20.426 8.851-23.83 10.213s-40.852 18.383-40.852 18.383l137.74-101.85z" fill="#263238"/>
		
			<path d="m224.55 311.91c-2.384 0.715-10.968 0.238-10.968 0.238s-5.246-4.053-7.869-6.438c-2.623-2.384-9.299-16.453-12.637-17.168s-17.406 7.392-17.406 7.392-11.445-5.007-14.307-4.53-12.161 8.822-12.161 8.822-12.876-1.908-15.26 1.908c-2.384 3.815-6.2 15.976-10.015 23.606s-17.645 27.898-17.645 27.898l-1.908 2.623s2.861 0.954 11.684 5.484c8.822 4.53 22.891 25.99 22.891 25.99s19.552-9.061 30.521-14.068c10.968-5.007 19.791-15.976 22.175-20.506s6.438-8.823 11.445-12.876 14.307-5.723 16.453-8.584-1.431-7.153-1.431-7.153 2.623-1.431 3.815-2.384c1.192-0.954 5.961-3.577 6.438-6.438s-1.431-4.532-3.815-3.816zm-36.721 22.89 4.531-13.83c1.908 1.431 10.253 4.531 10.253 4.531-5.484 1.431-14.784 9.299-14.784 9.299z" fill="#fff"/>
			<path d="m140.14 315.96s-0.715-4.053-0.238-5.484 9.299-10.253 9.299-10.253" fill="none"/>
			<polyline points="147.77 320.73 149.68 314.54 175.67 295.94" fill="none"/>
			<path d="m160.65 325.26s0.954-5.961 2.146-6.915 10.253-3.1 10.253-3.1 13.83-11.922 16.214-11.922 19.791 9.299 24.321 8.822" fill="none"/>
			<path d="m221.21 313.1s-3.105 0.01-1.436 1.917c1.669 1.908 5.246 0.954 6.915 0.477" fill="none"/>
			<path d="m202.62 325.5s8.584-5.007 15.499-0.954" fill="none"/>
			<path d="m215.97 325.98-4.769 1.669s1.908 3.815 2.146 5.246l0.238 1.431" fill="none"/>
			
				<line x1="187.83" x2="183.54" y1="334.8" y2="344.34" fill="none"/>
			<path d="m74.572 371.76s15.022-9.776 20.506-13.83 8.346-3.338 11.207-4.292 17.168 3.338 26.706 15.26 8.584 20.745 7.392 23.129-31.236 20.506-31.236 20.506-4.292-17.168-16.929-27.421c-12.639-10.252-17.646-13.352-17.646-13.352z" fill="white"/>
			<path d="m14.484 400.29s27.828-17.005 32.466-19.797 10.008-6.599 10.008-6.599 1.465-7.36 8.544-7.614 13.914 2.538 23.19 7.614 20.749 23.604 21.969 30.964 3.661 9.645 1.709 14.467c-1.953 4.822-9.276 5.076-10.741 5.076s-4.882 3.046-4.882 3.046l-52.238 34.01" fill="white"/>
			<path d="m100.83 411.48s2.184 1.622-2.184 8.434" fill="none"/>
			<path d="m97.711 414.72s-0.312 7.136-6.863 13.624" fill="none"/>
		
	</g>

</svg>
