<?xml version="1.0" encoding="UTF-8"?>
<svg preserveAspectRatio="none" version="1.1" viewBox="0 0 1440 560" xmlns="http://www.w3.org/2000/svg">
<g fill="none" mask="url(#a)">
<rect width="1440" height="560" fill="rgba(255, 255, 255, 1)"/>
<path d="m1396.4 139.98a42.16 42.16 0 1 0 84.32 0 42.16 42.16 0 1 0-84.32 0z" stroke="rgba(89, 228, 168, 1)"/>
<path d="m695.66 296.32a20.89 20.89 0 1 0-35.19 22.53z" stroke="rgba(66, 68, 90, 1)"/>
<path d="m1191.8 124.67h19.82v39.31h-19.82z" fill="rgba(213, 248, 229, 1)"/>
<path d="m952.67 285.86h32.59v32.59h-32.59z" fill="rgba(213, 248, 229, 1)"/>
<path d="m387.06 551.49a33.17 33.17 0 1 0 66.34 0 33.17 33.17 0 1 0-66.34 0z" stroke="rgba(66, 68, 90, 1)"/>
<path d="m118.2 451.13a47.63 47.63 0 1 0 95.26 0 47.63 47.63 0 1 0-95.26 0z" stroke="rgba(213, 248, 229, 1)"/>
<path d="m647.17 112.01a2.41 2.41 0 1 0 2.13-4.32z" fill="rgba(66, 68, 90, 1)"/>
<path d="m1194.2 51.15h52.82v52.82h-52.82z" fill="rgba(213, 248, 229, 1)"/>
<path d="m361.92 18.57a13.5 13.5 0 1 0 27 0 13.5 13.5 0 1 0-27 0z" stroke="rgba(213, 248, 229, 1)"/>
<path d="m137.33 366.06a52.8 52.8 0 1 0 103.9-18.82z" stroke="rgba(213, 248, 229, 1)"/>
<path d="m822.91 212.29a51.88 51.88 0 1 0 103.76 0 51.88 51.88 0 1 0-103.76 0z" stroke="rgba(66, 68, 90, 1)"/>
<path d="m1192.8 277.61a45.71 45.71 0 1 0 40.97 81.72z" fill="rgba(66, 68, 90, 1)"/>
<path d="m87.41 1.48a43.06 43.06 0 1 0-83.67 20.41z" fill="rgba(66, 68, 90, 1)"/>
<path d="m735.23 468.89a49.5 49.5 0 1 0 66.29-73.52z" stroke="rgba(89, 228, 168, 1)"/>
<path d="m506.46 86.18h21.65v21.65h-21.65z" stroke="rgba(213, 248, 229, 1)"/>
<path d="m671.12 392.63h53.85v50.08h-53.85z" fill="rgba(213, 248, 229, 1)"/>
<path d="m1181.4 49.83a46.35 46.35 0 1 0 53.83 75.47z" fill="rgba(213, 248, 229, 1)"/>
<path d="m1145.7 211.21h27.18v47.86h-27.18z" fill="rgba(89, 228, 168, 1)"/>
<path d="m368.37 209.82h24.77v24.77h-24.77z" stroke="rgba(89, 228, 168, 1)"/>
<path d="m351.2 525.23h12.99v52.1h-12.99z" fill="rgba(89, 228, 168, 1)"/>
<path d="m563.19 549.13h13.95v25.37h-13.95z" fill="rgba(89, 228, 168, 1)"/>
<path d="m466.19 362.35a18.04 18.04 0 1 0 35.62 5.72z" stroke="rgba(89, 228, 168, 1)"/>
<path d="m787.01 135.9a14.46 14.46 0 1 0-28.87 1.58z" stroke="rgba(66, 68, 90, 1)"/>
<path d="m959.07 157.93a5.53 5.53 0 1 0 11.06 0 5.53 5.53 0 1 0-11.06 0z" fill="rgba(89, 228, 168, 1)"/>
<path d="m213.85 449.3a27.52 27.52 0 1 0 55.02-1.26z" fill="rgba(66, 68, 90, 1)"/>
<path d="m617.49 511.32a34.28 34.28 0 1 0 44.25-52.37z" stroke="rgba(213, 248, 229, 1)"/>
<path d="m296.78 550.65a3.6 3.6 0 1 0 7.2 0 3.6 3.6 0 1 0-7.2 0z" stroke="rgba(213, 248, 229, 1)"/>
<path d="m874.79 76.62a8.84 8.84 0 1 0-10.22-14.42z" stroke="rgba(89, 228, 168, 1)"/>
<path d="m541.59 30.1h15.3v15.3h-15.3z" fill="rgba(66, 68, 90, 1)"/>
<path d="m924.36 485.08h18.11v18.11h-18.11z" stroke="rgba(66, 68, 90, 1)"/>
<path d="m1076.1 408.35a28.07 28.07 0 1 0 56.14 0 28.07 28.07 0 1 0-56.14 0z" fill="rgba(89, 228, 168, 1)"/>
<path d="m772.95 79.44h43.84v43.84h-43.84z" fill="rgba(213, 248, 229, 1)"/>
<path d="m611.65 199.13h4.5v8.26h-4.5z" fill="rgba(66, 68, 90, 1)"/>
</g>
<defs>
<mask id="a">
<rect width="1440" height="560" fill="#fff"/>
</mask>
</defs>
</svg>

