<?xml version="1.0" encoding="UTF-8"?>
<svg preserveAspectRatio="none" version="1.1" viewBox="0 0 1440 560" xmlns="http://www.w3.org/2000/svg">
<g fill="none" mask="url(#a)">
<rect width="1440" height="560" fill="rgba(255, 255, 255, 1)"/>
<path d="m452.55 438.93h54.47v54.47h-54.47z" stroke="rgba(27, 46, 53, 1)"/>
<path d="m754.92 311.75h17.73v17.73h-17.73z" stroke="rgba(27, 46, 53, 1)"/>
<path d="m351.24 428.31a42.33 42.33 0 1 0-76.79 35.64z" fill="rgba(27, 46, 53, 1)"/>
<path d="m201.82 523.74h14.52v14.52h-14.52z" stroke="rgba(27, 46, 53, 1)"/>
<path d="m24.33 455.79h47.01v47.01h-47.01z" stroke="rgba(213, 248, 229, 1)"/>
<path d="m286.55 23.14a27.86 27.86 0 1 0 55.72 0 27.86 27.86 0 1 0-55.72 0z" stroke="rgba(213, 248, 229, 1)"/>
<path d="m1105.3 500.56a1.23 1.23 0 1 0 2.46 0 1.23 1.23 0 1 0-2.46 0z" fill="rgba(213, 248, 229, 1)"/>
<path d="m461.09 94.9a38.37 38.37 0 1 0-56.34-52.1z" fill="rgba(213, 248, 229, 1)"/>
<path d="m237.09 165.33h17.12v17.12h-17.12z" fill="rgba(27, 46, 53, 1)"/>
<path d="m162.27 64.68a49.43 49.43 0 1 0 98.86 0 49.43 49.43 0 1 0-98.86 0z" stroke="rgba(27, 46, 53, 1)"/>
<path d="m958.77 559.81h27.41v16.99h-27.41z" fill="rgba(213, 248, 229, 1)"/>
<path d="m141.24 333.36a35.1 35.1 0 1 0 42.52-55.85z" stroke="rgba(27, 46, 53, 1)"/>
<path d="m1104.2 277.9h52.38v52.38h-52.38z" fill="rgba(213, 248, 229, 1)"/>
<path d="m971.91 482.05a47.53 47.53 0 1 0 95.06 0 47.53 47.53 0 1 0-95.06 0z" stroke="rgba(213, 248, 229, 1)"/>
<path d="m764.81 434.98a6.9 6.9 0 1 0 13.8 0 6.9 6.9 0 1 0-13.8 0z" stroke="rgba(27, 46, 53, 1)"/>
<path d="m1327.4 450.41h7.49v45.83h-7.49z" fill="rgba(213, 248, 229, 1)"/>
<path d="m394.62 84.14a0.11 0.11 0 1 0 0.22 0 0.11 0.11 0 1 0-0.22 0z" fill="rgba(27, 46, 53, 1)"/>
<path d="m1010.9 19.48a6.81 6.81 0 1 0-10.94-8.12z" stroke="rgba(27, 46, 53, 1)"/>
<path d="m1134.2 520.93a16.55 16.55 0 1 0 33.1 0 16.55 16.55 0 1 0-33.1 0z" fill="rgba(213, 248, 229, 1)"/>
<path d="m1330.4 126.36a11.08 11.08 0 1 0 22.16 0 11.08 11.08 0 1 0-22.16 0z" stroke="rgba(27, 46, 53, 1)"/>
<path d="m977.67 59.06h12.34v31.32h-12.34z" stroke="rgba(213, 248, 229, 1)"/>
<path d="m115.29 406.54a29.45 29.45 0 1 0-58.61-5.9z" fill="rgba(27, 46, 53, 1)"/>
<path d="m339.81 45.98a50.09 50.09 0 1 0 76.8-64.32z" fill="rgba(213, 248, 229, 1)"/>
<path d="m586.19 195.9a20.8 20.8 0 1 0 41.6 0 20.8 20.8 0 1 0-41.6 0z" fill="rgba(213, 248, 229, 1)"/>
<path d="m948.73 207.22a2.14 2.14 0 1 0-3.72 2.11z" stroke="rgba(27, 46, 53, 1)"/>
<path d="m798.33 294.66h50.4v5.05h-50.4z" stroke="rgba(27, 46, 53, 1)"/>
<path d="m886.43 66.39h26.1v29.25h-26.1z" fill="rgba(213, 248, 229, 1)"/>
<path d="m1204.3 44.85a26.39 26.39 0 1 0-1.16 52.77z" stroke="rgba(213, 248, 229, 1)"/>
<path d="m550.86 461.08a36.05 36.05 0 1 0 72.1 0 36.05 36.05 0 1 0-72.1 0z" fill="rgba(213, 248, 229, 1)"/>
<path d="m1357.2 210.57a49.09 49.09 0 1 0 49.16-84.99z" stroke="rgba(27, 46, 53, 1)"/>
<path d="m897.69 330.67h52.5v52.5h-52.5z" fill="rgba(213, 248, 229, 1)"/>
<path d="m227.66 272.12h55.09v55.09h-55.09z" stroke="rgba(27, 46, 53, 1)"/>
<path d="m1126 464.55a43.88 43.88 0 1 0-47.28 73.94z" fill="rgba(27, 46, 53, 1)"/>
</g>
<defs>
<mask id="a">
<rect width="1440" height="560" fill="#fff"/>
</mask>
</defs>
</svg>

