<?xml version="1.0" encoding="UTF-8"?>
<svg preserveAspectRatio="none" version="1.1" viewBox="0 0 1440 560" xmlns="http://www.w3.org/2000/svg">
<g fill="none" mask="url(#a)">
<rect width="1440" height="560" fill="rgba(255, 255, 255, 1)"/>
<path d="m465.13 170.56h54.73v39.92h-54.73z" stroke="rgba(213, 248, 229, 1)"/>
<path d="m731.45-21.08a46.51 46.51 0 1 0 82.6 42.77z" stroke="rgba(66, 68, 90, 1)"/>
<path d="m429.47 73.79h29.92v29.92h-29.92z" fill="rgba(89, 228, 168, 1)"/>
<path d="m811.03 40.03a4.19 4.19 0 1 0 8.38 0 4.19 4.19 0 1 0-8.38 0z" fill="rgba(66, 68, 90, 1)"/>
<path d="m205.93 486.49h39.53v21.83h-39.53z" fill="rgba(213, 248, 229, 1)"/>
<path d="m553.82 102.26a25.91 25.91 0 1 0-51.69 3.65z" stroke="rgba(89, 228, 168, 1)"/>
<path d="m639.02 198.35h30.4v36.04h-30.4z" stroke="rgba(213, 248, 229, 1)"/>
<path d="m1278.9 559.31a25.81 25.81 0 1 0 51.62 0 25.81 25.81 0 1 0-51.62 0z" stroke="rgba(213, 248, 229, 1)"/>
<path d="m490.14 285.19h39.41v39.41h-39.41z" stroke="rgba(66, 68, 90, 1)"/>
<path d="m190.9 419.83h10.96v33.49h-10.96z" fill="rgba(66, 68, 90, 1)"/>
<path d="m584.86 383.66h25.56v33.92h-25.56z" stroke="rgba(213, 248, 229, 1)"/>
<path d="m1295.4 235.83a42.69 42.69 0 1 0 30.77-79.64z" stroke="rgba(66, 68, 90, 1)"/>
<path d="m1115 63.26h3.25v3.25h-3.25z" stroke="rgba(66, 68, 90, 1)"/>
<path d="m414.32 503.95a27.07 27.07 0 1 0 54.14 0 27.07 27.07 0 1 0-54.14 0z" fill="rgba(89, 228, 168, 1)"/>
<path d="m771.89 339.02h16.37v16.37h-16.37z" stroke="rgba(89, 228, 168, 1)"/>
<path d="m1332 232.39a5.12 5.12 0 1 0 10.24 0 5.12 5.12 0 1 0-10.24 0z" fill="rgba(89, 228, 168, 1)"/>
<path d="m-42.49 181.94a49.89 49.89 0 1 0 99.78 0 49.89 49.89 0 1 0-99.78 0z" fill="rgba(66, 68, 90, 1)"/>
<path d="m889.57 335.96h45.84v45.84h-45.84z" fill="rgba(66, 68, 90, 1)"/>
<path d="m1012.6 413.79h44.52v15.7h-44.52z" fill="rgba(66, 68, 90, 1)"/>
<path d="m535.56 503.96h41.69v41.69h-41.69z" stroke="rgba(213, 248, 229, 1)"/>
<path d="m804.79 145.05a49.8 49.8 0 1 0 99.6 0 49.8 49.8 0 1 0-99.6 0z" stroke="rgba(213, 248, 229, 1)"/>
<path d="m215.56 71.56h22.96v22.96h-22.96z" stroke="rgba(213, 248, 229, 1)"/>
<path d="m517.23 327.95a13.45 13.45 0 1 0-5.9-26.24z" stroke="rgba(213, 248, 229, 1)"/>
<path d="m-8.44 85.83a15.39 15.39 0 1 0 30.78 0 15.39 15.39 0 1 0-30.78 0z" stroke="rgba(89, 228, 168, 1)"/>
<path d="m951.03 365.54h26.35v26.35h-26.35z" fill="rgba(89, 228, 168, 1)"/>
<path d="m347.54 15.23a6.09 6.09 0 1 0-9.33-7.84z" fill="rgba(66, 68, 90, 1)"/>
<path d="m1266.4 270.59a20.95 20.95 0 1 0 8.37 41.05z" fill="rgba(213, 248, 229, 1)"/>
<path d="m918.47 481.08h17.61v37.95h-17.61z" stroke="rgba(66, 68, 90, 1)"/>
<path d="m898.2 193.64a3.2 3.2 0 1 0 6.4 0 3.2 3.2 0 1 0-6.4 0z" fill="rgba(66, 68, 90, 1)"/>
<path d="m217.18-7.64a33.68 33.68 0 1 0 55.05 38.81z" stroke="rgba(66, 68, 90, 1)"/>
<path d="m189.64 186.72h50.68v41.7h-50.68z" fill="rgba(89, 228, 168, 1)"/>
<path d="m1238.9 383.92a43.82 43.82 0 1 0 87.64 0 43.82 43.82 0 1 0-87.64 0z" stroke="rgba(66, 68, 90, 1)"/>
<path d="m1093.5 517.58h21.06v21.06h-21.06z" fill="rgba(66, 68, 90, 1)"/>
</g>
<defs>
<mask id="a">
<rect width="1440" height="560" fill="#fff"/>
</mask>
</defs>
</svg>




