<?xml version="1.0" encoding="UTF-8"?>
<svg preserveAspectRatio="none" version="1.1" viewBox="0 0 1440 560" xmlns="http://www.w3.org/2000/svg">
<g fill="none" mask="url(#a)">
<rect width="1440" height="560" fill="rgba(255, 255, 255, 1)"/>
<path d="m801.55 413.6h15.47v54.22h-15.47z" stroke="rgba(66, 68, 90, 1)"/>
<path d="m511.7 423.95a20.54 20.54 0 1 0 41.08 0 20.54 20.54 0 1 0-41.08 0z" stroke="rgba(89, 228, 168, 1)"/>
<path d="m825.72 13.31a2.18 2.18 0 1 0 4.36 0 2.18 2.18 0 1 0-4.36 0z" fill="rgba(89, 228, 168, 1)"/>
<path d="m440.34 323.45h12.06v12.62h-12.06z" stroke="rgba(89, 228, 168, 1)"/>
<path d="m327.34 225.11h24.72v24.72h-24.72z" stroke="rgba(66, 68, 90, 1)"/>
<path d="m1382.8 101.08h46.99v46.99h-46.99z" stroke="rgba(213, 248, 229, 1)"/>
<path d="m1015.2 258.65a13.52 13.52 0 1 0-1.98-26.97z" stroke="rgba(89, 228, 168, 1)"/>
<path d="m1032 420.59h51.08v41.67h-51.08z" fill="rgba(89, 228, 168, 1)"/>
<path d="m148.55 434.85a17.58 17.58 0 1 0 35.16 0 17.58 17.58 0 1 0-35.16 0z" stroke="rgba(66, 68, 90, 1)"/>
<path d="m569.81 22.85h53.79v53.79h-53.79z" stroke="rgba(66, 68, 90, 1)"/>
<path d="m964.56 220.92h35.43v40.85h-35.43z" fill="rgba(213, 248, 229, 1)"/>
<path d="m1082.2 469.38a37.51 37.51 0 1 0 72.34 19.86z" fill="rgba(89, 228, 168, 1)"/>
<path d="m854.53 158.49a19.16 19.16 0 1 0-21.45 31.75z" fill="rgba(66, 68, 90, 1)"/>
<path d="m995.56 478.64h28.64v19.02h-28.64z" fill="rgba(213, 248, 229, 1)"/>
<path d="m1425 16.44h4.11v1.04h-4.11z" fill="rgba(89, 228, 168, 1)"/>
<path d="m33.22 217.46a24.99 24.99 0 1 0-48.9-10.32z" fill="rgba(213, 248, 229, 1)"/>
<path d="m679.19 244.64h53.11v25.71h-53.11z" stroke="rgba(66, 68, 90, 1)"/>
<path d="m1010.2 36.16h52.26v52.26h-52.26z" fill="rgba(213, 248, 229, 1)"/>
<path d="m1409.6 350.86a4.63 4.63 0 1 0-8.89 2.59z" fill="rgba(66, 68, 90, 1)"/>
<path d="m1044 371.96a9.89 9.89 0 1 0 19.78 0 9.89 9.89 0 1 0-19.78 0z" stroke="rgba(213, 248, 229, 1)"/>
<path d="m991.14 328.71a47.83 47.83 0 1 0 95.66 0 47.83 47.83 0 1 0-95.66 0z" fill="rgba(66, 68, 90, 1)"/>
<path d="m35.89 199.57h46.27v46.27h-46.27z" stroke="rgba(66, 68, 90, 1)"/>
<path d="m735.15 79.24h29.47v29.47h-29.47z" fill="rgba(213, 248, 229, 1)"/>
<path d="m443.5 374.16a18.76 18.76 0 1 0-25.19 27.81z" stroke="rgba(89, 228, 168, 1)"/>
<path d="m182.21 190.82a18.21 18.21 0 1 0-30.93-19.23z" stroke="rgba(89, 228, 168, 1)"/>
<path d="m986.31 291.26h1.89v20.59h-1.89z" stroke="rgba(89, 228, 168, 1)"/>
<path d="m281.88 184.5h3.08v16.69h-3.08z" stroke="rgba(66, 68, 90, 1)"/>
<path d="m1088.7 466.69h31.19v11.78h-31.19z" fill="rgba(89, 228, 168, 1)"/>
<path d="m348.17 39.3h33.26v33.26h-33.26z" stroke="rgba(213, 248, 229, 1)"/>
<path d="m700.87 130.65a30.36 30.36 0 1 0 60.72 0 30.36 30.36 0 1 0-60.72 0z" fill="rgba(213, 248, 229, 1)"/>
<path d="m54.3 311.66a22.17 22.17 0 1 0-44.33-1.16z" fill="rgba(89, 228, 168, 1)"/>
<path d="m1205.3 210.81h13.17v38.93h-13.17z" stroke="rgba(89, 228, 168, 1)"/>
<path d="m301.51 466.86h36.17v12.84h-36.17z" stroke="rgba(66, 68, 90, 1)"/>
</g>
<defs>
<mask id="a">
<rect width="1440" height="560" fill="#fff"/>
</mask>
</defs>
</svg>
