<?xml version="1.0" encoding="UTF-8"?>
<svg preserveAspectRatio="none" version="1.1" viewBox="0 0 1440 560" xmlns="http://www.w3.org/2000/svg">
<g fill="none" mask="url(#a)">
<rect width="1440" height="560" fill="rgba(255, 255, 255, 1)"/>
<path d="m489.77 543.25a32.41 32.41 0 1 0 57.79-29.36z" stroke="rgba(89, 228, 168, 1)"/>
<path d="m-3.26 292.44a28.47 28.47 0 1 0 56.94 0 28.47 28.47 0 1 0-56.94 0z" fill="rgba(89, 228, 168, 1)"/>
<path d="m1395.4 452.66h26v26h-26z" stroke="rgba(89, 228, 168, 1)"/>
<path d="m609.32 447.22a54.84 54.84 0 1 0 89.84 62.92z" fill="rgba(89, 228, 168, 1)"/>
<path d="m779.39 382.75h17.36v17.36h-17.36z" stroke="rgba(255, 255, 255, 1)"/>
<path d="m1239.4 34.68h22.17v22.17h-22.17z" stroke="rgba(89, 228, 168, 1)"/>
<path d="m323.57 111.84h30.35v22.31h-30.35z" stroke="rgba(213, 248, 229, 1)"/>
<path d="m1187.2 34.84h16.28v16.28h-16.28z" stroke="rgba(89, 228, 168, 1)"/>
<path d="m1399.1 508.57h50.14v3.49h-50.14z" stroke="rgba(213, 248, 229, 1)"/>
<path d="m1228.6 564.53a49.89 49.89 0 1 0 85.63-51.22z" stroke="rgba(89, 228, 168, 1)"/>
<path d="m991.66 77.73a11.34 11.34 0 1 0 22.68 0 11.34 11.34 0 1 0-22.68 0z" fill="rgba(89, 228, 168, 1)"/>
<path d="m282.2 467.41a48.27 48.27 0 1 0 96.54 0 48.27 48.27 0 1 0-96.54 0z" stroke="rgba(255, 255, 255, 1)"/>
<path d="m1313.5 287.11h14.22v14.22h-14.22z" fill="rgba(213, 248, 229, 1)"/>
<path d="m659.57 67.84h13.29v29.9h-13.29z" fill="rgba(89, 228, 168, 1)"/>
<path d="m27.41 445.98h17.17v22.35h-17.17z" fill="rgba(213, 248, 229, 1)"/>
<path d="m167.3 255.2a13.22 13.22 0 1 0 14.11-22.36z" stroke="rgba(89, 228, 168, 1)"/>
<path d="m1399.1 332.61a24.59 24.59 0 1 0 49.18 0 24.59 24.59 0 1 0-49.18 0z" stroke="rgba(213, 248, 229, 1)"/>
<path d="m1358.5 81.48a49.01 49.01 0 1 0 98.02 0 49.01 49.01 0 1 0-98.02 0z" stroke="rgba(255, 255, 255, 1)"/>
<path d="m1166.9 111.62a48.94 48.94 0 1 0-5.02-97.76z" stroke="rgba(255, 255, 255, 1)"/>
<path d="m1366.6 514.42h45.56v45.56h-45.56z" fill="rgba(255, 255, 255, 1)"/>
<path d="m370.12 282.97a2.43 2.43 0 1 0 4.86 0 2.43 2.43 0 1 0-4.86 0z" stroke="rgba(255, 255, 255, 1)"/>
<path d="m887.01 100.16h11.66v11.66h-11.66z" stroke="rgba(255, 255, 255, 1)"/>
<path d="m766.7 264.73h35.45v35.45h-35.45z" fill="rgba(213, 248, 229, 1)"/>
<path d="m896.57 70.95a32.65 32.65 0 1 0 43.45-48.75z" stroke="rgba(255, 255, 255, 1)"/>
<path d="m1398.2 67.37h3.83v3.83h-3.83z" fill="rgba(213, 248, 229, 1)"/>
<path d="m1357.5 126.83h12.52v12.52h-12.52z" fill="rgba(213, 248, 229, 1)"/>
<path d="m159.92 490.62a11.03 11.03 0 1 0-15.6 15.59z" stroke="rgba(89, 228, 168, 1)"/>
<path d="m307.5 245.16a2.35 2.35 0 1 0 4.08 2.32z" fill="rgba(89, 228, 168, 1)"/>
<path d="m367.69 474.38a51.21 51.21 0 1 0 93.32-42.2z" fill="rgba(255, 255, 255, 1)"/>
<path d="m1141 44.71a48.96 48.96 0 1 0 97.92 0 48.96 48.96 0 1 0-97.92 0z" fill="rgba(255, 255, 255, 1)"/>
<path d="m91.07 9.59a44.96 44.96 0 1 0 89.92 0 44.96 44.96 0 1 0-89.92 0z" fill="rgba(213, 248, 229, 1)"/>
<path d="m1314.9 508.93a55.69 55.69 0 1 0-111.38 0.07z" fill="rgba(255, 255, 255, 1)"/>
<path d="m890.85 509.95a35.45 35.45 0 1 0-67.51 21.66z" fill="rgba(213, 248, 229, 1)"/>
</g>
<defs>
<mask id="a">
<rect width="1440" height="560" fill="#fff"/>
</mask>
</defs>
</svg>